<?xml version="1.0" standalone="no"?>
<!DOCTYPE svg PUBLIC "-//W3C//DTD SVG 1.1//EN" "http://www.w3.org/Graphics/SVG/1.1/DTD/svg11.dtd" >
<svg xmlns="http://www.w3.org/2000/svg">
<metadata>
<json>
<![CDATA[
{
	"fontFamily": "informa-function-icons",
	"majorVersion": 1,
	"minorVersion": 0,
	"version": "Version 1.0",
	"fontId": "informa-function-icons",
	"psName": "informa-function-icons",
	"subFamily": "Regular",
	"fullName": "informa-function-icons",
	"description": "Font generated by IcoMoon."
}
]]>
</json>
</metadata>
<defs>
<font id="informa-function-icons" horiz-adv-x="1024">
<font-face units-per-em="1024" ascent="960" descent="-64" />
<missing-glyph horiz-adv-x="1024" />
<glyph unicode="&#x20;" horiz-adv-x="512" d="" />
<glyph unicode="&#xe900;" glyph-name="01_Chevron_right" data-tags="01_Chevron_right" horiz-adv-x="584" d="M527.872 559.616l-338.432 349.184-138.24-142.336 307.712-317.44-307.712-317.44 138.24-142.336 338.944 349.184v221.184z" />
<glyph unicode="&#xe901;" glyph-name="02_Chevron_down" data-tags="02_Chevron_down" d="M622.592 211.968l349.184 338.432-142.336 138.24-317.44-307.712-317.44 307.712-142.336-138.24 349.184-338.944h221.184z" />
<glyph unicode="&#xe902;" glyph-name="03_Arrow_right" data-tags="03_Arrow_right" d="M973.312 338.432l-384-352.768-137.728 150.016 232.448 208.896h-633.344v196.608h634.368l-233.472 215.552 137.728 153.6 381.44-365.568z" />
<glyph unicode="&#xe903;" glyph-name="04_Arrow_left" data-tags="04_Arrow_left" d="M51.2 338.432l384-352.768 137.216 150.016-231.936 208.896h632.32v196.096h-633.856l233.472 216.064-137.216 153.6-381.44-365.568z" />
<glyph unicode="&#xe904;" glyph-name="05_External_link" data-tags="05_External_link" d="M52.224 793.6v-806.4h806.4v460.8h-115.2v-345.6h-576v576h345.6v115.2h-460.8zM884.736 908.8l-251.904-1.536v-122.88l130.56-1.536-270.336-270.848 83.968-83.456 270.848 270.848-1.536-134.656h124.416l1.024 254.976z" />
<glyph unicode="&#xe905;" glyph-name="06_Download" data-tags="06_Download" d="M573.952 314.88l176.64 179.712-86.528 86.528-93.696-91.136v381.952h-118.784v-382.976l-93.696 96.256-88.064-88.064 179.712-180.736zM857.6 323.584v-184.832h-691.2v184.832h-115.2v-299.52h921.6v299.52z" />
<glyph unicode="&#xe906;" glyph-name="07_Close" data-tags="07_Close" d="M972.8 767.488l-141.312 141.312-319.488-319.488-319.488 319.488-141.312-141.312 319.488-319.488-319.488-319.488 141.312-141.312 319.488 319.488 319.488-319.488 141.312 141.312-319.488 319.488z" />
<glyph unicode="&#xe907;" glyph-name="08_Search" data-tags="08_Search" d="M944.128 153.088l-262.656 262.656c26.624 49.152 40.448 103.936 40.448 159.744 0 184.832-150.528 335.36-335.36 335.36s-335.36-150.528-335.36-335.872c0-184.832 150.528-335.36 335.36-335.36 54.272 0 107.52 13.312 154.624 37.888l263.68-263.68c18.432-18.432 43.008-28.672 69.632-28.672 26.112 0 50.688 10.24 69.632 28.672 38.4 38.912 38.4 100.864 0 139.264zM857.6 66.56l-253.44 253.44c12.288 10.752 24.064 22.016 34.816 34.304l252.928-253.44c4.608-4.608 7.168-10.752 7.168-17.408s-2.56-12.8-7.168-16.896c-4.608-4.608-10.752-7.168-17.408-7.168 0 0 0 0 0 0-6.656 0-12.288 2.56-16.896 7.168zM648.192 575.488c0-144.384-117.248-261.632-261.632-261.632s-261.632 117.248-261.632 261.632c0 144.384 117.248 261.632 261.632 261.632 144.384-0.512 261.632-117.76 261.632-261.632z" />
<glyph unicode="&#xe908;" glyph-name="09_Get_in_touch" data-tags="09_Get_in_touch" d="M476.672 237.568l-5.12 10.752h-11.776c-1.536 0-2.56 0-4.096 0-0.512 0-1.024 0-2.048 0-33.792 0-92.672 7.168-125.44 15.36-9.216 2.048-18.944 0.512-26.624-5.632l-76.8-57.344 25.6 70.144c5.12 14.336-0.512 30.208-13.312 37.888-76.288 47.616-121.856 122.88-121.856 201.728 0 144.896 151.552 262.656 338.432 262.656 163.84 0 303.616-90.624 332.8-216.064l2.56-12.288 12.288-2.56c8.704-2.048 16.896-4.096 25.088-6.144l30.208-8.704-5.632 31.232c-28.672 158.72-199.68 278.528-397.312 278.528-222.208-0.512-402.432-146.944-402.432-326.656 0-92.672 48.64-181.76 130.56-241.152l-53.76-147.456c-4.608-13.312-0.512-28.16 11.264-36.864 5.632-4.096 12.288-6.144 18.944-6.144 7.168 0 13.312 2.048 18.944 6.144l150.528 112.64c38.4-8.192 91.136-13.824 125.952-13.824 5.12 0 9.728 0 14.848 0.512l40.448 1.536-19.456 29.184c-5.12 7.168-9.216 14.848-12.8 22.528zM914.432 178.176c40.96 32.768 58.368 73.216 58.368 133.12 0 112.128-104.96 203.264-233.472 203.264-129.024 0-233.472-91.136-233.472-203.264s104.96-203.264 233.472-203.264c18.432 0 45.568 3.072 67.072 7.168l82.944-60.416c4.608-3.072 9.728-5.12 15.36-5.632h4.096c7.168 0.512 13.824 3.584 18.944 8.704 5.632 5.632 8.704 13.824 8.704 21.504 0 4.096-1.024 8.192-2.048 11.776l-19.968 87.040zM739.328 168.96c-52.224 0-101.376 18.944-135.168 52.736-25.088 25.6-39.424 57.344-39.424 89.6 0 78.336 78.336 142.336 174.080 142.336 0 0 0 0 0 0 96.256 0 174.080-64 174.080-142.336 0-46.592-12.288-70.656-48.64-94.72-10.24-7.168-15.36-19.968-12.8-32.256l7.68-33.28-29.696 21.504c-5.12 3.584-11.264 5.632-17.408 5.632-2.56 0-5.12-0.512-7.68-1.024-16.896-4.608-47.104-8.192-65.024-8.192z" />
<glyph unicode="&#xe909;" glyph-name="10_Reqest_a_call" data-tags="10_Reqest_a_call" d="M897.536 559.616h-248.832l81.408 81.408c11.264 11.264 11.264 29.184 0 40.448-5.632 5.632-12.8 8.192-20.48 8.192s-14.848-2.56-20.48-8.192l-130.56-130.56c-11.264-11.264-11.264-29.184 0-40.448l130.56-130.56c11.264-11.264 29.696-11.264 40.448 0 11.264 11.264 11.264 29.184 0 40.448l-81.408 81.408h248.832c15.872 0 28.672 12.8 28.672 28.672 0.512 16.384-12.288 29.184-28.16 29.184zM651.776 283.648c-5.632 7.168-10.24 12.8-14.336 17.92-3.584 4.608-6.656 8.192-8.704 10.752 0 0.512-0.512 0.512-0.512 1.024-8.704 10.752-19.456 18.432-30.208 22.016-22.016 6.656-45.056-1.024-61.952-21.504-19.968-19.456-35.328-30.208-44.544-34.816-12.288 18.944-38.912 66.048-83.968 152.064-20.48 38.912-65.024 123.392-77.824 155.648 9.728 5.12 29.184 12.288 54.784 16.896 20.48 3.584 36.864 12.8 46.080 27.136 9.216 13.824 10.24 30.72 3.584 50.176-0.512 1.536-1.024 3.072-1.536 5.12-2.048 6.656-5.12 16.384-8.192 27.648 0 0.512 0 0.512-0.512 1.024-3.584 11.264-7.168 24.576-11.264 38.4-14.848 49.152-29.696 100.352-35.328 114.176-4.608 10.752-12.8 31.232-35.84 38.4-8.192 3.072-15.872 3.072-23.552 3.072-2.048 0-4.096 0-6.656 0-0.512 0-0.512 0-1.024 0h-4.096c-28.672 0-52.224-4.608-95.744-27.136-63.488-33.28-125.952-88.064-110.592-244.224 12.8-130.048 96.768-292.864 105.984-311.296 3.584-7.168 93.184-176.64 195.584-264.192 37.888-33.28 74.24-54.784 111.104-66.048 18.432-5.632 36.864-8.704 55.296-8.704 32.256 0 64 9.216 96.256 27.136 43.52 23.040 60.928 39.936 76.8 62.976l1.536 2.56c13.824 14.848 35.84 38.912 7.68 79.36-11.776 17.408-72.704 93.184-98.304 124.416zM534.528 56.32c-27.136 8.704-56.32 26.112-88.576 54.272-92.672 78.848-179.2 244.224-180.224 245.76s-87.552 167.424-99.84 287.744c-11.264 111.104 19.456 150.528 75.264 180.736 36.352 18.944 50.688 19.456 67.072 19.456h4.608c0.512 0 1.024 0 1.024 0 1.536 0 2.56 0 3.584 0 6.656-17.92 31.232-101.376 44.544-146.944 3.584-11.776 6.656-22.016 8.192-28.672 0 0 0-0.512 0-0.512-19.456-3.072-79.36-15.36-101.376-46.592-10.752-13.824-9.216-29.696-9.216-34.816 0-1.024 0-1.536 0.512-2.56 6.656-33.28 77.824-164.864 87.552-181.76 8.192-17.408 76.288-151.040 99.84-175.616 1.024-1.024 2.048-1.536 3.072-2.56 4.608-3.072 9.728-7.168 17.408-9.216 36.352-11.264 78.848 23.552 111.616 54.784 0 0 0 0 0 0 2.56-3.072 7.68-9.216 11.776-14.848 2.56-3.072 5.12-6.656 8.192-10.752 0 0 0.512-0.512 0.512-1.024 30.208-36.864 86.016-105.984 95.744-120.32 0.512-0.512 1.024-1.024 1.024-2.048-1.024-1.536-2.56-3.584-3.072-5.12l-2.56-3.584c-9.728-13.312-17.92-25.088-54.272-44.032-38.4-18.944-68.096-22.528-102.4-11.776z" />
<glyph unicode="&#xe90a;" glyph-name="11_Call_us" data-tags="11_Call_us" d="M573.952 906.752c-1.024 0.512-2.048 0.512-3.072 1.024-16.896 4.608-34.816-5.632-38.912-22.528-4.608-16.896 5.632-34.816 22.528-38.912 229.888-74.24 355.84-320 281.6-549.888-5.632-16.896 3.584-35.328 20.48-40.448 16.896-5.632 35.328 4.096 40.448 20.992 84.48 262.144-60.416 544.768-323.072 629.76zM534.528 784.896c-1.024 0.512-2.048 0.512-3.072 1.024-16.896 4.608-34.816-5.632-38.912-22.528-4.608-16.896 5.632-34.816 22.528-38.912 162.816-52.736 251.904-226.304 199.168-389.12-5.632-16.896 3.584-35.328 20.48-40.448 16.896-5.632 35.328 4.096 40.448 20.992 62.976 195.072-45.056 405.504-240.64 468.992zM649.216 279.040c-5.12 6.656-10.24 12.8-14.336 17.92-3.584 4.608-6.656 8.192-8.192 10.752 0 0.512-0.512 0.512-0.512 1.024-8.704 10.752-18.944 18.432-29.696 21.504-21.504 6.656-44.032-1.024-60.928-20.992-19.456-18.944-34.816-29.696-43.52-34.304-12.8 19.968-40.448 69.12-82.944 149.504-20.48 38.912-64.512 121.856-76.8 153.6 9.728 5.12 28.672 12.288 53.76 16.896 20.48 3.072 36.352 12.8 45.568 26.624 8.704 13.824 10.24 30.208 3.584 49.152-0.512 1.536-1.024 3.072-1.536 5.12-2.048 6.656-5.12 15.872-7.68 27.136 0 0.512 0 0.512-0.512 1.024-3.584 11.264-7.168 24.576-11.264 37.888-14.336 48.64-29.696 98.304-34.816 112.64-4.608 10.752-12.8 30.72-35.328 37.888-8.192 2.56-15.36 2.56-23.552 2.56-2.048 0-4.096 0-6.144 0-0.512 0-0.512 0-1.024 0h-4.096c-28.16 0-51.2-4.096-94.208-27.136-62.464-32.768-123.904-87.040-108.544-240.64 12.8-128.512 95.232-288.768 104.448-306.176 3.584-7.168 91.648-174.080 192.512-260.096 37.376-32.768 73.216-53.76 109.568-65.024 18.432-5.632 36.352-8.704 54.272-8.704 31.744 0 62.976 8.704 94.72 26.624 43.008 22.528 59.904 39.424 75.776 61.952l1.536 2.56c13.824 14.336 35.328 38.4 7.68 77.824-12.8 17.92-72.704 92.16-97.792 122.88zM533.504 55.296c-27.136 8.192-55.296 25.6-87.552 53.248-90.112 76.8-174.080 235.008-177.664 242.176-1.024 1.536-86.016 164.864-98.304 283.648-10.752 108.544 19.456 147.456 74.752 177.664 35.84 18.944 50.176 18.944 66.048 19.456h4.608c0.512 0 1.024 0 1.024 0 1.536 0 2.56 0 3.584 0 6.656-17.92 30.72-99.84 44.032-144.384 3.584-11.776 6.656-21.504 8.192-28.16 0 0 0-0.512 0-0.512-18.944-3.072-77.824-15.36-99.84-46.080-10.752-13.312-9.216-29.184-8.704-34.304 0-1.024 0-1.536 0.512-2.56 6.656-31.744 76.8-162.816 86.528-179.2 8.192-16.896 75.776-148.992 98.304-172.544 1.024-1.024 2.048-1.536 3.072-2.56 4.608-3.072 9.728-7.168 16.896-9.216 35.84-11.264 77.824 23.040 110.080 54.272 0 0 0 0 0 0 2.56-3.072 7.168-9.216 11.264-14.848 2.56-3.072 5.12-6.656 8.192-10.752 27.648-33.792 84.48-104.448 94.208-118.784 0.512-0.512 1.024-1.024 1.024-2.048-1.024-1.536-2.56-3.584-3.072-4.608l-2.56-3.584c-9.728-13.312-17.92-24.576-53.76-43.52-37.888-19.456-67.072-23.552-100.864-12.8z" />
<glyph unicode="&#xe90b;" glyph-name="12_Email" data-tags="12_Email" d="M900.096 782.336h-776.192c-40.448 0-72.704-34.304-72.704-76.288v-515.584c0-41.984 32.768-76.288 72.704-76.288h775.68c40.448 0 72.704 34.304 72.704 76.288v515.584c0.512 41.984-32.256 76.288-72.192 76.288zM506.368 368.128c-1.024-1.024-2.048-2.048-3.072-2.56-0.512 0.512-1.536 1.024-2.048 2.048l-342.528 349.696h699.392l-351.744-349.184zM342.528 441.344l-228.864-227.84v458.752l228.864-230.912zM633.856 404.992l221.696-225.792h-685.056l214.528 215.040 71.68-71.68c14.336-14.848 30.208-22.016 46.592-22.016s32.768 7.68 47.104 22.528l83.456 81.92zM677.376 451.584l232.96 228.864v-465.408l-232.96 236.544z" />
<glyph unicode="&#xe90c;" glyph-name="13_Twitter" data-tags="13_Twitter" d="M957.44 735.232c-2.56 3.072-5.12 5.632-7.68 7.68 5.12 24.064-3.584 49.664-23.552 65.536-11.776 9.728-26.624 14.336-40.96 14.336-11.776 0-23.040-3.072-33.792-9.216-16.384-9.728-33.792-17.92-52.224-23.552-38.912 28.672-86.528 44.544-135.68 44.544-112.64 0-206.336-81.92-224.768-188.928-83.456 19.968-159.744 67.072-215.552 135.168-12.8 15.36-31.232 24.064-51.2 24.064-1.536 0-3.584 0-5.12 0-21.504-1.536-40.96-13.824-51.712-32.768-19.968-34.816-30.72-74.24-30.72-114.688 0-25.6 4.096-50.688 12.288-74.24-8.192-10.752-13.312-24.064-13.824-37.888 0-1.536 0-3.072 0-4.096 0-57.344 21.504-110.592 57.856-151.552-1.536-10.24-1.024-20.48 2.56-30.208 11.264-35.84 31.232-67.072 56.32-92.16-14.336-2.56-28.672-3.584-43.52-3.584-10.24 0-20.992 0.512-30.72 2.048-2.56 0.512-5.12 0.512-7.68 0.512-27.648 0-52.736-17.408-61.952-43.52-10.24-29.184 0.512-61.44 26.624-77.824 84.992-54.272 183.296-82.944 284.16-82.944 154.624 0 293.376 61.44 391.68 172.544 83.456 94.72 132.608 219.648 135.168 343.552 26.624 23.040 49.664 49.152 69.12 78.848 15.36 23.552 13.824 55.808-5.12 78.336zM825.856 608.768c0.512-7.168 0.512-13.824 0.512-20.992 0-214.016-162.816-460.8-460.8-460.8-91.648 0-176.64 26.624-248.32 72.704 12.8-1.536 25.6-2.048 38.4-2.048 75.776 0 145.92 26.112 201.216 69.12-70.656 1.536-130.56 48.128-151.040 112.64 9.728-2.048 19.968-3.072 30.208-3.072 14.848 0 29.184 2.048 42.496 5.632-74.24 14.848-130.048 80.384-130.048 158.72 0 0.512 0 1.536 0 2.048 22.016-12.288 46.592-19.456 73.216-20.48-43.008 29.696-71.68 79.36-71.68 135.68 0 29.696 8.192 57.344 22.016 81.408 79.872-97.792 199.168-162.304 333.824-169.472-2.56 11.776-4.096 24.064-4.096 36.864 0 89.6 72.704 161.792 161.792 161.792 46.592 0 88.576-19.456 118.272-51.2 36.864 7.168 71.68 20.992 102.912 39.424-12.288-37.888-37.888-69.632-71.168-89.6 32.768 4.096 64 12.8 93.184 25.6-21.504-32.256-49.152-60.928-80.896-83.968z" />
<glyph unicode="&#xe90d;" glyph-name="14_LInked_in" data-tags="14_LInked_in" d="M877.056 583.168c-47.616 51.712-114.176 79.36-192.512 79.36-52.736 0-93.696-13.312-125.44-31.232-10.24 7.168-22.528 10.752-35.328 10.752h-162.304c-11.776 0-23.040-3.584-32.768-9.216-8.192 4.096-17.408 6.144-27.136 6.144h-6.144c41.472 25.088 68.096 70.144 68.096 124.416 0 0.512 0 1.024 0 1.024-1.536 83.968-62.976 144.384-145.408 144.384-83.456 0-146.432-62.464-146.432-145.408 0-54.272 26.624-99.328 67.584-124.416h-0.512c-34.304 0-62.464-27.648-62.464-62.464v-526.848c0-34.304 27.648-62.464 62.464-62.464h162.304c10.752 0 20.992 3.072 30.208 7.68 9.216-5.12 19.456-7.68 30.208-7.68h162.816c34.304 0 62.464 27.648 62.464 62.464v300.544c0 13.824 1.024 19.456 1.536 20.48 7.168 17.408 18.432 26.112 33.28 26.112 35.84 0 42.496-15.872 42.496-46.592v-300.544c0-34.304 27.648-62.464 62.464-62.464h163.328c34.304 0 62.464 27.648 62.464 62.464v308.224c0 95.232-25.088 171.008-75.264 225.28zM134.144 763.392c0 47.104 33.28 82.944 83.968 82.944s81.92-35.84 82.944-82.944c0-46.080-32.256-82.944-83.968-82.944h-1.024c-49.664 0-81.92 36.864-81.92 82.944zM301.056 49.664h-161.792v526.848h162.304v-526.848zM889.856 49.664h-163.328v300.544c0 72.192-40.448 109.056-104.96 109.056-49.152 0-78.336-33.28-91.136-65.536-4.608-11.264-5.632-27.648-5.632-43.52v-300.544h-163.328c0 0 2.56 479.744 0 530.432h162.816l-1.024-70.656c23.552 36.864 65.536 90.624 161.792 90.624 117.248 0 204.8-76.8 204.8-242.176v-308.224z" />
<glyph unicode="&#xe90e;" glyph-name="15_Facebook" data-tags="15_Facebook" horiz-adv-x="614" d="M486.4 843.264v-136.192h-68.608c-51.2 0-54.784-18.944-54.784-54.784v-68.096h123.904l-14.336-136.192h-109.568v-395.264h-163.84v395.264h-81.92v136.192h81.92v81.92c0 111.104 46.080 177.152 177.664 177.152h109.568zM486.4 908.8h-109.568c-81.92 0-144.896-23.040-186.368-68.096-38.4-41.472-57.344-98.816-57.344-174.592v-15.872h-16.384c-36.352 0-65.536-29.696-65.536-65.536v-136.704c0-36.352 29.696-65.536 65.536-65.536h16.384v-329.216c0-36.352 29.696-65.536 65.536-65.536h164.352c36.352 0 65.536 29.696 65.536 65.536v329.216h43.52c33.792 0 61.952 25.6 65.536 58.88l14.336 136.192c2.048 18.432-4.096 36.864-16.384 51.2-7.168 7.68-15.872 13.824-25.6 17.408 24.576 9.728 41.472 33.28 41.472 61.44v135.68c0.512 35.84-28.672 65.536-65.024 65.536v0z" />
<glyph unicode="&#xe90f;" glyph-name="16_Play" data-tags="16_Play" d="M512 89.6c-197.632 0-358.4 160.768-358.4 358.4s160.768 358.4 358.4 358.4 358.4-160.768 358.4-358.4-160.768-358.4-358.4-358.4zM512 908.8c-253.952 0-460.8-206.848-460.8-460.8s206.848-460.8 460.8-460.8 460.8 206.848 460.8 460.8-206.848 460.8-460.8 460.8zM422.912 255.488l242.688 192.512-242.688 191.488z" />
<glyph unicode="&#xe910;" glyph-name="17_Plus" data-tags="17_Plus" d="M972.8 531.456h-377.344v377.344h-166.912v-377.344h-377.344v-166.912h377.344v-377.344h166.912v377.344h377.344z" />
<glyph unicode="&#xe911;" glyph-name="18_Burger_nav" data-tags="18_Burger_nav" d="M51.2 184.32h921.6v-73.216h-921.6v73.216zM51.2 482.304h921.6v-73.216h-921.6v73.216zM51.2 780.8h921.6v-73.216h-921.6v73.216z" />
<glyph unicode="&#xe912;" glyph-name="19_See_more" data-tags="19_See_more" d="M512 908.8c-254.464 0-460.8-206.336-460.8-460.8s206.336-460.8 460.8-460.8c254.464 0 460.8 206.336 460.8 460.8s-206.336 460.8-460.8 460.8zM693.248 417.792h-136.192v-136.192h-84.48v136.192h-142.848v84.48h142.848v136.192h84.992v-136.192h136.192v-84.48z" />
<glyph unicode="&#xe913;" glyph-name="20_See_less" data-tags="20_See_less" d="M512 908.8c-254.464 0-460.8-206.336-460.8-460.8s206.336-460.8 460.8-460.8c254.464 0 460.8 206.336 460.8 460.8s-206.336 460.8-460.8 460.8zM693.248 412.16h-363.52v84.992h364.032v-84.992z" />
<glyph unicode="&#xe914;" glyph-name="21_Tick" data-tags="21_Tick" d="M512-12.8c-254.464 0-460.8 206.336-460.8 460.8s206.336 460.8 460.8 460.8c254.464 0 460.8-206.336 460.8-460.8s-206.336-460.8-460.8-460.8zM687.104 619.52l-214.016-246.784-114.688 118.784-57.856-59.392 144.384-147.968h57.856l243.712 276.48-59.392 58.88z" />
<glyph unicode="&#xe915;" glyph-name="22_Question_mark" data-tags="22_Question_mark" d="M512 908.8c-254.464 0-460.8-206.336-460.8-460.8s206.336-460.8 460.8-460.8 460.8 206.336 460.8 460.8c0 254.464-206.336 460.8-460.8 460.8zM501.248 198.656c-31.744 0-54.784 24.064-54.784 52.736 0 29.696 22.528 53.76 54.272 53.76 32.256 0 54.784-24.064 54.784-53.76 0-28.672-22.528-52.736-54.272-52.736zM539.136 367.616c0-7.168-4.608-9.216-33.792-9.216h-12.288c-27.136 0-33.792 1.536-33.792 10.24v2.56c0 114.176 101.376 130.048 101.376 206.848 0 30.208-17.408 52.224-53.76 52.224-24.064 0-48.128-11.776-68.608-26.112-7.68-5.12-12.8-3.072-24.064 20.992l-9.216 18.944c-8.192 17.408-8.192 24.064 0.512 31.232 27.648 22.528 66.56 39.936 111.616 39.936 79.872 0 134.144-49.152 134.656-131.072 1.536-119.808-110.080-137.728-112.64-216.576z" />
<glyph unicode="&#xe916;" glyph-name="23_Error" data-tags="23_Error" d="M512 908.8c-253.44 0-460.8-205.312-460.8-460.8 0-253.44 205.312-460.8 460.8-460.8 253.44 2.048 460.8 207.36 460.8 462.848 0 253.44-207.36 458.752-460.8 458.752zM507.392 704h7.168c36.352 0 43.008-3.584 43.008-12.8l-10.24-335.872c0-7.168-6.144-8.704-29.184-8.704h-13.312c-22.528 0-29.184 1.536-29.184 8.704l-11.264 335.872c0 9.216 6.656 12.8 43.008 12.8zM511.488 192c-30.72 0-53.248 23.040-53.248 51.712 0 29.184 22.528 52.224 53.248 52.224 31.232 0 54.272-23.040 54.272-52.224 0-28.672-22.528-51.712-54.272-51.712z" />
<glyph unicode="&#xe917;" glyph-name="24_Share" data-tags="24_Share" d="M954.88 203.776c-5.12 114.176-103.424 202.752-218.624 197.12-55.808-2.56-107.008-26.624-144.896-67.072-11.264-11.776-20.48-25.088-28.16-38.912l-99.328 54.272c15.36 28.672 23.552 60.928 23.552 95.744 0 27.136-5.632 53.248-15.36 77.312l104.96 57.344c37.888-51.2 99.328-84.48 168.448-84.48 115.2 0 209.408 92.672 209.408 206.848s-93.696 206.848-209.408 206.848-209.408-92.672-209.408-206.848c0-15.872 2.048-31.744 5.632-46.592l-116.224-63.488c-37.888 36.864-89.6 59.904-146.944 59.904-115.2 0-209.408-92.672-209.408-206.848s93.696-206.848 209.408-206.848c49.664 0 95.232 17.408 131.072 45.568l128-70.144c-1.024-9.728-1.536-18.944-1.024-28.672 2.56-55.296 26.624-106.496 68.096-143.36 38.912-34.816 88.576-53.76 140.288-53.76 3.072 0 6.656 0 9.728 0 115.712 5.12 205.312 101.888 200.192 216.064v0zM745.472 825.344c69.12 0 125.44-55.296 125.44-123.392s-56.32-123.392-125.44-123.392-125.44 55.296-125.44 123.392 56.32 123.392 125.44 123.392zM278.528 321.536c-69.12 0-125.44 55.296-125.44 123.392s56.32 123.392 125.44 123.392 125.44-55.296 125.44-123.392-56.32-123.392-125.44-123.392zM751.104 71.168c-33.792-1.536-65.536 9.728-90.624 32.256-24.576 22.016-38.912 52.224-40.448 84.992s10.24 64 32.768 88.576c22.528 24.576 53.76 38.912 87.040 40.448 2.048 0 4.096 0 6.144 0 66.56 0 122.368-51.712 124.928-117.248 3.072-68.096-50.688-125.952-119.808-129.024z" />
<glyph unicode="&#xe918;" glyph-name="25_Location" data-tags="25_Location" horiz-adv-x="748" d="M374.784 908.8c-178.688 0-323.584-152.576-323.584-339.968 0-141.312 180.224-409.088 287.232-556.032 4.096-5.632 7.168-9.728 7.68-10.752 6.144-9.216 15.872-14.336 28.16-14.336s22.016 5.12 28.16 14.336c1.024 1.536 3.584 5.12 7.68 10.752 107.52 146.944 287.232 414.72 287.232 556.032 1.024 187.392-144.384 339.968-322.56 339.968zM374.784 838.656c141.824 0 253.44-118.784 253.44-269.824 0-62.976-66.56-228.352-253.44-486.4-54.272 75.264-253.44 359.936-253.44 486.4 0 148.48 113.664 269.824 253.44 269.824zM374.784 393.728c91.648 0 166.4 77.824 166.4 174.592 0 97.28-74.752 174.592-166.4 174.592s-166.4-77.312-166.4-174.080c0-97.28 74.752-175.104 166.4-175.104zM374.784 688.128c60.928 0 111.104-52.736 111.104-119.296s-49.664-119.296-111.104-119.296-111.104 52.736-111.104 119.296c0 66.56 50.176 119.296 111.104 119.296z" />
<glyph unicode="&#xe919;" glyph-name="26_Pen" data-tags="26_Pen" horiz-adv-x="650" d="M599.040 472.064l-257.024 428.032c-3.584 5.12-9.216 8.704-15.872 8.704s-12.288-3.584-15.872-8.704l-256.512-428.032c-3.072-5.12-3.584-11.264-1.024-16.384l120.832-281.6v-167.936c0-10.24 8.192-18.432 18.432-18.432h268.8c10.24 0 18.432 8.192 18.432 18.432v167.936l120.832 281.6c2.048 5.12 2.048 11.264-1.024 16.384zM414.208 52.224h-176.128v95.744h176.128v-95.744zM425.472 212.48h-198.144l-105.472 246.272 172.032 286.72v-204.288c0-10.24 8.192-18.432 18.432-18.432h28.16c10.24 0 18.432 8.192 18.432 18.432v204.8l172.032-286.72-105.472-246.784zM263.168 444.416c-34.816-34.816-34.816-91.648 0-125.952 17.408-17.408 40.448-26.112 62.976-26.112s45.568 8.704 62.976 26.112c34.816 34.816 34.816 91.648 0 126.464-34.304 33.792-91.136 33.792-125.952-0.512zM309.248 398.336c4.608 4.608 10.752 7.168 17.408 7.168 6.144 0 12.288-2.56 17.408-7.168 9.728-9.728 9.728-25.088 0-34.304-9.728-9.728-25.088-9.728-34.304 0-10.24 9.216-10.24 24.576-0.512 34.304z" />
<glyph unicode="&#xe91a;" glyph-name="27_Single_user" data-tags="27_Single_user" d="M512 908.8c-253.44 0-460.288-206.848-460.8-460.8 0-125.44 49.152-246.784 135.68-333.312 81.92-82.432 191.488-127.488 307.2-127.488 6.656 0 12.8 0 18.944 0.512 257.536 10.752 459.776 212.992 459.776 460.8 0 253.44-206.848 460.288-460.8 460.288zM502.272 680.448c77.312 0 140.288-62.976 140.288-140.288s-62.976-140.288-140.288-140.288c-77.312 0-140.288 62.976-140.288 140.288s62.976 140.288 140.288 140.288zM417.28 369.664c27.136-13.312 55.808-20.48 85.504-20.48s58.368 6.656 85.504 20.48c101.376-33.792 172.032-133.12 173.568-241.664-71.68-54.784-158.208-86.016-250.368-89.6-5.632 0-11.264-0.512-16.384-0.512-90.112 0-174.080 30.208-243.712 87.552-0.512 112.64 66.048 210.944 165.888 244.224zM693.248 540.16c0 105.472-85.504 190.976-190.976 190.976s-190.976-85.504-190.976-190.976c0-51.2 19.968-99.328 56.832-135.68-89.6-43.008-150.528-129.536-164.864-232.96-65.024 74.752-101.888 175.616-101.376 276.992 0.512 226.304 184.32 410.112 410.112 410.112 226.304 0 410.112-183.808 410.112-410.112 0-103.936-40.448-202.24-113.152-278.016-14.848 101.888-80.384 190.976-172.032 234.496 36.352 35.84 56.32 83.968 56.32 135.168z" />
<glyph unicode="&#xe91b;" glyph-name="28_Multi_user" data-tags="28_Multi_user" d="M512 908.8c-254.464 0-460.8-206.336-460.8-460.8s206.336-460.8 460.8-460.8 460.8 206.336 460.8 460.8-206.336 460.8-460.8 460.8zM449.536 510.464c0-53.76-43.52-97.28-97.28-97.28s-97.28 43.52-97.28 97.28 43.52 97.28 97.28 97.28 97.28-44.032 97.28-97.28zM512 39.936c-139.264 0-262.656 70.144-335.872 177.152 0.512 78.336 46.592 145.92 115.2 169.984 37.888-18.944 84.48-18.944 122.368 0 19.968-7.168 35.84-17.408 51.712-33.792l7.68-7.68 26.624 31.232-6.656 6.656c-10.752 10.752-23.552 22.528-41.472 31.744 24.576 25.6 38.912 59.904 38.912 95.744 0 76.288-61.952 138.24-138.24 138.24s-138.24-61.952-138.24-138.24c0-35.84 13.824-70.144 38.912-95.744-54.784-27.648-94.72-78.848-110.080-139.776-24.576 52.736-38.912 111.616-38.912 173.568 0 225.28 183.296 408.064 408.064 408.064s408.064-183.808 408.064-409.088c0-62.464-14.336-121.344-39.424-174.592-16.384 60.928-58.368 113.152-115.2 140.8 24.576 25.6 38.4 59.904 38.4 95.744 0 76.288-61.952 138.24-138.24 138.24s-138.24-61.952-138.24-138.24c0-35.84 13.824-70.144 38.912-95.744-72.192-35.84-117.76-112.64-117.76-199.168 0-11.264 9.216-20.48 20.48-20.48s20.48 9.216 20.48 20.48c0 78.848 46.080 147.456 115.2 171.008 37.888-18.944 84.48-18.944 122.368 0 70.656-24.064 119.808-93.184 120.32-169.984-72.704-105.984-196.096-176.128-335.36-176.128zM763.904 510.464c0-53.76-43.52-97.28-97.28-97.28s-97.28 43.52-97.28 97.28 43.52 97.28 97.28 97.28 97.28-44.032 97.28-97.28z" />
<glyph unicode="&#xe91c;" glyph-name="29_Plus5_users" data-tags="29_Plus5_users" d="M888.832 644.608c25.6 28.16 40.96 65.536 40.96 106.496 0 87.040-70.656 158.208-158.208 158.208-53.76 0-101.376-27.136-130.048-68.096-40.96 12.8-84.48 19.968-130.048 19.968-241.152 0-436.736-195.584-436.736-436.736s195.584-436.736 436.736-436.736 436.736 195.584 436.736 436.736c0.512 79.872-21.504 155.136-59.392 220.16zM779.776 712.704l1.536 3.072c2.56 5.12 3.584 6.144 5.632 5.12 7.68-4.608 14.848-7.168 24.064-7.168 12.8 0 22.016 8.192 22.016 22.528s-8.192 22.016-24.064 22.016c-5.632 0-12.8-0.512-17.92-2.048-2.56-0.512-4.096 0-4.096 2.048v60.928c0 2.048 1.024 2.56 7.68 2.56h55.296c1.536 0 2.048-1.024 2.048-8.704v-3.072c0-7.68-0.512-8.704-2.048-8.704h-41.472v-24.576c1.536 0 5.632 0.512 7.68 0.512 24.576 0 41.472-13.312 41.472-39.424 0-12.8-4.096-23.040-11.264-30.208-8.192-8.704-20.48-13.312-35.328-13.312-12.288 0-23.552 3.584-31.744 9.216-2.56 1.536-2.56 3.072 0.512 9.216zM706.56 766.464v30.72c0 1.536 1.024 2.56 8.704 2.56h2.56c7.68 0 8.704-0.512 8.704-2.56v-30.72h30.72c1.536 0 2.56-1.024 2.56-8.704v-2.56c0-7.68-0.512-8.704-2.56-8.704h-30.72v-30.72c0-1.536-1.024-2.56-8.704-2.56h-2.56c-7.68 0-8.704 0.512-8.704 2.56v30.72h-30.72c-1.536 0-2.56 1.024-2.56 8.704v2.56c0 7.68 0.512 8.704 2.56 8.704h30.72zM452.608 466.944c0-50.688-41.472-92.16-92.16-92.16s-92.16 41.472-92.16 92.16c0 50.688 41.472 92.16 92.16 92.16s92.16-41.472 92.16-92.16zM512 36.864c-131.584 0-247.808 66.048-317.952 166.912 5.632 68.096 47.616 124.928 108.544 145.92 35.84-17.92 79.872-17.92 115.712 0 18.944-6.656 33.792-16.384 49.152-31.744l7.168-7.68 25.088 29.696-6.144 6.144c-10.24 10.24-22.528 20.992-38.912 30.208 23.552 24.064 36.864 56.832 36.864 90.624 0 72.192-58.88 130.56-130.56 130.56s-131.072-58.368-131.072-130.56c0-34.304 13.312-66.56 36.864-90.624-49.152-24.576-84.992-69.12-101.376-122.368-25.088 51.2-39.424 109.056-39.424 170.496 0 212.992 173.568 386.56 386.56 386.56 37.376 0 73.728-5.632 108.032-15.36-4.096-13.824-6.144-28.672-6.144-44.032 0-87.040 70.656-158.208 158.208-158.208 28.16 0 54.272 7.168 77.312 19.968 31.744-55.808 49.664-120.32 49.664-188.928 0-61.44-14.336-119.808-39.936-171.52-17.408 53.248-55.296 98.816-105.984 123.904 23.552 24.064 36.352 56.832 36.352 90.624 0 72.192-58.88 130.56-130.56 130.56s-130.56-58.88-130.56-130.56c0-34.304 13.312-66.56 36.864-90.624-68.096-34.304-111.616-106.496-111.616-188.416 0-10.752 8.704-19.456 19.456-19.456s19.456 8.704 19.456 19.456c0 74.752 43.52 139.776 109.056 162.304 35.84-17.92 79.872-17.92 115.712 0 62.464-21.504 107.008-79.36 113.152-145.92-71.168-101.888-187.392-167.936-318.976-167.936zM750.592 466.944c0-50.688-41.472-92.16-92.16-92.16s-92.16 41.472-92.16 92.16c0 50.688 41.472 92.16 92.16 92.16s92.16-41.472 92.16-92.16z" />
<glyph unicode="&#xe91d;" glyph-name="30_Free_trial" data-tags="30_Free_trial" d="M697.856 310.784c14.336-14.336 37.376-14.848 51.712-0.512l211.968 206.848c10.24 9.728 13.824 24.064 9.216 37.376-4.096 13.312-15.872 23.040-29.696 25.088l-273.92 39.936-122.368 248.32c-6.144 12.288-18.944 20.48-32.768 20.48s-26.624-8.192-32.768-20.48l-122.88-248.32-273.92-39.936c-13.824-2.048-25.088-11.776-29.696-25.088-4.096-13.312-0.512-27.648 9.216-37.376l198.144-193.024-46.592-272.896c-2.56-13.824 3.072-27.648 14.336-35.84 6.656-4.608 13.824-7.168 21.504-7.168 5.632 0 11.776 1.536 16.896 4.096l245.76 128.512 245.248-129.024c12.288-6.656 27.136-5.632 38.4 2.56s16.896 22.016 14.848 35.84l-16.896 98.304c-3.584 19.968-22.528 33.28-42.496 29.696s-33.28-22.528-29.696-42.496l4.096-25.088-196.608 103.424c-10.752 5.632-23.552 5.632-34.304 0l-196.608-103.424 37.376 218.624c2.048 11.776-2.048 24.064-10.752 32.256l-158.208 156.16 219.648 31.744c11.776 1.536 22.528 9.216 27.648 19.968l98.304 199.168 98.304-199.168c5.12-10.752 15.872-18.432 27.648-19.968l219.648-31.744-158.72-154.624c-14.848-14.336-15.36-37.376-1.024-52.224z" />
<glyph unicode="&#xe91e;" glyph-name="31_Credit_card" data-tags="31_Credit_card" d="M900.608 193.536c-16.896-18.944-50.688-19.968-114.176-19.968-4.608 0-339.456 0-536.576 0h-16.384c-126.976 0.512-126.976 5.632-126.976 147.456v169.984h811.008v-169.984c0-69.632 0-108.032-16.896-127.488zM239.104 725.504h547.328c67.584 0 98.816-2.048 114.688-20.992 11.776-13.824 14.848-34.816 15.872-75.776h-809.984c1.024 41.984 4.096 63.488 16.384 76.8 16.384 18.944 50.688 19.968 115.712 19.968zM943.104 740.864c-34.304 39.936-88.064 39.936-156.672 39.936h-547.328c-71.68 0-123.392 0-157.696-38.912-30.208-34.304-30.208-80.384-30.208-163.84v-257.024c0-163.84 16.896-202.24 181.76-202.752h16.896c54.784 0 532.992 0 537.088 0 70.656 0 121.344 0 155.648 38.912 30.72 34.816 30.72 83.456 30.72 163.84v257.024c-0.512 82.432-0.512 128-30.208 162.816z" />
<glyph unicode="&#xe91f;" glyph-name="32_Send_broshure" data-tags="32_Send_broshure" horiz-adv-x="922" d="M871.936 279.552c0 1.024 0 2.048-0.512 3.584 0 1.024 0 1.536-0.512 2.56 0 1.024 0 1.536-0.512 2.048 0 0.512-0.512 1.536-1.024 2.56s-0.512 2.048-1.024 3.584c0 0.512-0.512 1.024-0.512 1.536-0.512 1.024-0.512 1.536-1.024 2.048-0.512 1.024-1.024 2.048-1.536 3.072l-104.96 129.024c-13.824 17.92-39.424 22.016-57.856 8.192-8.704-6.656-14.336-16.384-15.872-27.136s1.024-21.504 8.192-30.72l52.736-59.904h-292.864c-22.528 0-40.96-18.432-40.96-40.96s18.432-40.96 40.96-40.96h293.888l-45.056-60.416c-13.824-18.432-17.92-44.032 0-57.856 7.168-5.12 15.872-8.192 24.576-8.192 13.312 0 25.088 6.144 32.768 16.384l102.912 126.464c0.512 0.512 0.512 1.024 0.512 1.024 0.512 0.512 1.024 1.536 1.024 1.536 1.024 1.024 1.536 2.048 2.048 3.072v0l0.512 0.512c0.512 0.512 0.512 1.024 1.024 1.536l0.512 2.048c0.512 1.024 0.512 1.536 1.024 3.072 0 1.024 0.512 1.536 0.512 2.048s0 1.024 0.512 1.536v1.024c0 1.024 0 2.048 0.512 3.072 0 1.024 0 2.048 0 2.56v1.024c0.512 0.512 0 1.024 0 1.024zM732.672 70.144h-600.576v755.712h559.104v-290.816c0-23.040 18.432-41.472 41.472-41.472s41.472 18.432 41.472 41.472v332.288c0 23.040-18.432 41.472-41.472 41.472h-642.048c-23.040 0-41.472-18.432-41.472-41.472v-838.656c0-23.040 18.432-41.472 41.472-41.472h641.536c23.040 0 41.472 18.432 41.472 41.472 0.512 23.040-17.92 41.472-40.96 41.472z" />
<glyph unicode="&#xe920;" glyph-name="33_Calendar" data-tags="33_Calendar" d="M909.824 840.704h-89.6c-15.36 40.448-54.784 68.096-98.304 68.096s-82.432-27.648-97.792-68.096h-225.792c-15.36 40.448-54.784 68.096-98.304 68.096s-82.432-27.648-98.304-68.096h-87.552c-33.792 0-60.928-27.136-60.928-60.928v-731.648c0-33.792 27.136-60.928 60.928-60.928h795.648c33.792 0 60.928 27.648 60.928 60.928v731.648c0 33.792-27.136 60.928-60.928 60.928zM685.568 163.84v-103.936h-138.24v103.936h138.24zM685.568 350.208v-113.152h-138.24v113.152h138.24zM685.568 536.064v-113.152h-138.24v113.152h138.24zM474.624 163.84v-103.936h-138.24v103.936h138.24zM474.624 350.208v-113.152h-138.24v113.152h138.24zM474.624 536.064v-113.152h-138.24v113.152h138.24zM898.048 768v-158.72h-772.096v158.72h75.264c14.848-41.472 54.272-70.144 98.816-70.144s83.968 28.16 98.816 70.144h224.256c14.848-41.472 54.272-70.144 98.816-70.144s83.968 28.16 98.816 70.144h77.312zM749.056 786.432c-6.144-9.728-15.872-15.36-26.624-15.36s-20.48 5.632-26.624 15.36c-4.096 6.144-5.632 11.776-5.632 16.896 0 6.144 2.56 12.288 6.656 18.432 3.584 5.12 12.288 13.824 25.6 13.824s22.016-8.704 25.6-13.824c4.608-6.144 6.656-12.288 6.656-18.432 0-5.632-2.048-11.264-5.632-16.896zM327.168 786.432c-6.144-9.728-15.872-15.36-26.624-15.36s-20.48 5.632-26.624 15.36c-4.096 6.144-5.632 11.264-5.632 16.896 0 6.144 2.048 12.288 6.656 18.432 3.584 5.12 12.288 13.824 25.6 13.824s22.016-8.704 25.6-13.824c4.608-6.144 6.656-12.288 6.656-18.432 0-5.632-2.048-11.264-5.632-16.896zM263.68 536.064v-113.152h-137.728v113.152h137.728zM263.68 350.208v-113.152h-137.728v113.152h137.728zM263.68 163.84v-103.936h-137.728v103.936h137.728zM898.048 163.84v-103.936h-139.264v103.936h139.264zM898.048 350.208v-113.152h-139.264v113.152h139.264zM898.048 536.064v-113.152h-139.264v113.152h139.264z" />
<glyph unicode="&#xe921;" glyph-name="34_Calendar_day" data-tags="34_Calendar_day" d="M909.824 840.704h-89.6c-15.36 40.448-54.784 68.096-98.304 68.096s-82.432-27.648-97.792-68.096h-225.792c-15.36 40.448-54.784 68.096-98.304 68.096s-82.432-27.648-98.304-68.096h-87.552c-33.792 0-60.928-27.136-60.928-60.928v-731.648c0-33.792 27.136-60.928 60.928-60.928h795.648c33.792 0 60.928 27.648 60.928 60.928v731.648c0 33.792-27.136 60.928-60.928 60.928zM898.048 536.064v-463.36h-772.096v463.36h772.096zM125.952 609.28v158.72h75.264c14.848-41.472 54.272-70.144 98.816-70.144s83.968 28.16 98.816 70.144h224.256c14.848-41.472 54.272-70.144 98.816-70.144s83.968 28.16 98.816 70.144h76.8v-158.72h-771.584zM749.056 786.432c-6.144-9.728-15.872-15.36-26.624-15.36s-20.48 5.632-26.624 15.36c-4.096 6.144-5.632 11.776-5.632 16.896 0 6.144 2.56 12.288 6.656 18.432 3.584 5.12 12.288 13.824 25.6 13.824s22.016-8.704 25.6-13.824c4.608-6.144 6.656-12.288 6.656-18.432 0-5.632-2.048-11.264-5.632-16.896zM327.168 786.432c-6.144-9.728-15.872-15.36-26.624-15.36s-20.48 5.632-26.624 15.36c-4.096 6.144-5.632 11.264-5.632 16.896 0 6.144 2.048 12.288 6.656 18.432 3.584 5.12 12.288 13.824 25.6 13.824s22.016-8.704 25.6-13.824c4.608-6.144 6.656-12.288 6.656-18.432 0-5.632-2.048-11.264-5.632-16.896z" />
<glyph unicode="&#xe922;" glyph-name="35_List_view" data-tags="35_List_view" d="M164.864 773.12c0-29.125-25.445-52.736-56.832-52.736s-56.832 23.611-56.832 52.736c0 29.125 25.445 52.736 56.832 52.736s56.832-23.611 56.832-52.736zM923.648 727.552h-662.016c-27.136 0-49.152 20.48-49.152 45.568s22.016 45.568 49.152 45.568h662.016c27.136 0 49.152-20.48 49.152-45.568s-22.016-45.568-49.152-45.568zM164.864 556.544c0-29.125-25.445-52.736-56.832-52.736s-56.832 23.611-56.832 52.736c0 29.125 25.445 52.736 56.832 52.736s56.832-23.611 56.832-52.736zM923.648 510.464h-662.016c-27.136 0-49.152 20.48-49.152 45.568s22.016 45.568 49.152 45.568h662.016c27.136 0 49.152-20.48 49.152-45.568s-22.016-45.568-49.152-45.568zM164.864 339.456c0-29.125-25.445-52.736-56.832-52.736s-56.832 23.611-56.832 52.736c0 29.125 25.445 52.736 56.832 52.736s56.832-23.611 56.832-52.736zM923.648 293.888h-662.016c-27.136 0-49.152 20.48-49.152 45.568s22.016 45.568 49.152 45.568h662.016c27.136 0 49.152-20.48 49.152-45.568s-22.016-45.568-49.152-45.568zM164.864 122.88c0-29.125-25.445-52.736-56.832-52.736s-56.832 23.611-56.832 52.736c0 29.125 25.445 52.736 56.832 52.736s56.832-23.611 56.832-52.736zM923.648 77.312h-662.016c-27.136 0-49.152 20.48-49.152 45.568s22.016 45.568 49.152 45.568h662.016c27.136 0 49.152-20.48 49.152-45.568s-22.016-45.568-49.152-45.568z" />
<glyph unicode="&#xe923;" glyph-name="36_Alert" data-tags="36_Alert" d="M833.536 202.24h-642.048c-4.608 0-7.68 0-10.752 0 6.144 9.216 15.36 21.504 21.504 30.72 35.328 47.616 93.696 113.664 93.696 192v188.928c0 129.024 92.16 233.472 213.504 233.472s215.040-104.448 215.040-233.472v-188.928c0-81.408 53.76-148.992 93.696-196.608 6.144-7.68 15.36-18.432 21.504-26.112-1.536 0-4.608 0-6.144 0zM510.976 47.104c-52.224 0-93.696 41.472-93.696 93.696h185.856c0-50.688-41.472-93.696-92.16-93.696zM865.792 268.288c-33.792 41.472-79.872 98.304-79.872 158.208v187.392c0 162.816-121.344 294.912-276.48 294.912s-274.944-132.096-274.944-294.912v-188.928c0-58.368-50.688-113.664-81.408-155.136-29.184-38.4-50.688-69.12-35.328-98.304 13.824-26.112 47.616-30.72 75.264-30.72h165.888c0-84.48 69.12-153.6 153.6-153.6s153.6 69.12 153.6 153.6h168.96c16.896 0 58.368 0 72.192 29.184 13.824 30.72-9.216 59.904-41.472 98.304z" />
<glyph unicode="&#xe924;" glyph-name="37_Quick_view" data-tags="37_Quick_view" d="M650.752 467.968l-140.8 81.92c-11.776 7.168-27.648 3.072-34.304-9.216-7.168-11.776-3.072-27.648 9.216-34.304l140.8-81.92c4.096-2.56 8.192-3.584 12.8-3.584 8.704 0 16.896 4.608 22.016 12.288 6.144 12.288 2.56 27.648-9.728 34.816zM937.472 623.616c13.312 13.312 13.312 35.328 0 48.64l-67.072 67.072c-13.312 13.312-35.328 13.312-48.64 0l-8.192-8.192c-51.2 31.232-111.104 49.664-175.104 49.664s-124.416-18.432-175.104-49.664l-8.192 8.192c-13.312 13.312-35.328 13.312-48.64 0l-67.584-67.072c-13.312-13.312-13.312-35.328 0-48.64l9.728-9.728c-28.672-49.152-45.056-106.496-45.056-167.936 0-184.32 150.016-334.848 334.848-334.848s334.336 150.528 334.336 334.848c0 60.928-16.384 118.272-45.056 167.936l9.728 9.728zM637.952 161.792c-156.672 0-284.16 127.488-284.16 284.16s127.488 284.672 284.16 284.672 284.16-127.488 284.16-284.16-126.976-284.672-284.16-284.672zM121.344 583.168h139.264c11.264 0 19.968 9.216 19.968 19.968s-9.216 19.968-19.968 19.968h-139.264c-11.264 0-19.968-9.216-19.968-19.968s9.216-19.968 19.968-19.968zM81.408 476.16h139.264c11.264 0 19.968 9.216 19.968 19.968 0 11.264-9.216 19.968-19.968 19.968h-139.264c-11.264 0-19.968-9.216-19.968-19.968 0-11.264 8.704-19.968 19.968-19.968zM71.168 369.152h149.504c11.264 0 19.968 9.216 19.968 19.968 0 11.264-9.216 19.968-19.968 19.968h-149.504c-11.264 0-19.968-9.216-19.968-19.968 0-11.264 9.216-19.968 19.968-19.968zM281.088 282.112c0 11.264-9.216 19.968-19.968 19.968h-139.776c-11.264 0-19.968-9.216-19.968-19.968 0-11.264 9.216-19.968 19.968-19.968h139.264c11.264 0 20.48 8.704 20.48 19.968zM656.384 630.272h-15.872c-3.584 0-6.656 3.072-6.656 6.656v53.76c0 3.584 3.072 6.656 6.656 6.656h15.872c3.584 0 6.656-3.072 6.656-6.656v-53.76c0.512-3.584-2.56-6.656-6.656-6.656z" />
<glyph unicode="&#xe925;" glyph-name="38_Detail_analisys" data-tags="38_Detail_analisys" d="M922.112 134.144h-820.224v517.12h50.688v-466.432h50.688v566.784h719.36l-0.512-617.472zM152.064 750.080v-49.152h-49.664c-28.16 0.512-51.2-22.528-51.2-51.2v-514.048c0-29.184 23.552-52.736 52.736-52.736h818.688c28.16 0 50.688 22.528 50.688 50.688v619.52c0 27.136-22.016 49.152-49.152 49.152h-719.872c-28.672 0-52.224-23.040-52.224-52.224zM253.44 701.44h293.888v-232.96h-293.888v232.96zM598.016 701.44h273.92v-44.032h-273.92v44.032zM598.016 606.72h273.92v-44.032h-273.92v44.032zM598.016 512h273.92v-44.032h-273.92v44.032zM253.44 417.792h618.496v-44.032h-618.496v44.032zM253.44 323.072h618.496v-44.032h-618.496v44.032zM253.44 228.352h618.496v-44.032h-618.496v44.032z" />
<glyph unicode="&#xe926;" glyph-name="39_Visual" data-tags="39_Visual" d="M512 908.8c-249.856 0-460.8-210.944-460.8-460.8 0-169.472 99.328-329.728 253.952-409.6 3.072-4.096 7.168-7.68 11.776-9.728s9.216-3.072 14.336-2.56c57.856-25.6 118.784-38.4 181.248-38.4 249.856 0 460.8 210.944 460.8 460.8s-211.456 460.288-461.312 460.288zM512 46.592c-48.128 0-95.744 8.704-141.824 26.624l79.872 168.448c20.48-6.144 40.96-9.728 61.952-9.728 104.448 0 195.584 78.848 210.432 180.224h189.952c-15.872-202.24-193.536-365.568-400.384-365.568zM482.304 848.384v-189.952c-103.424-14.848-183.296-105.984-183.296-210.432 0-70.144 37.376-137.728 97.28-177.664l-79.872-171.52c-126.976 73.216-205.824 205.824-205.824 349.184 0 206.848 165.888 384.512 371.712 400.384zM512 294.4c-83.456 0-153.6 70.144-153.6 153.6s70.144 153.6 153.6 153.6 153.6-70.144 153.6-153.6-70.144-153.6-153.6-153.6zM722.432 477.696c-13.312 93.184-88.064 167.424-181.248 181.248v189.44c195.072-14.848 355.84-175.616 370.688-370.688h-189.44z" />
<glyph unicode="&#xe927;" glyph-name="40_Raw_data" data-tags="40_Raw_data" d="M166.912 773.12c0-29.691-25.903-53.76-57.856-53.76s-57.856 24.069-57.856 53.76c0 29.691 25.903 53.76 57.856 53.76s57.856-24.069 57.856-53.76zM446.464 726.528h-180.736c-27.648 0-50.176 20.992-50.176 46.592s22.528 46.592 50.176 46.592h181.248c27.648 0 50.176-20.992 50.176-46.592s-22.528-46.592-50.688-46.592zM166.912 552.448c0-29.691-25.903-53.76-57.856-53.76s-57.856 24.069-57.856 53.76c0 29.691 25.903 53.76 57.856 53.76s57.856-24.069 57.856-53.76zM446.464 505.856h-180.736c-27.648 0-50.176 20.992-50.176 46.592s22.528 46.592 50.176 46.592h181.248c27.648 0 50.176-20.992 50.176-46.592-0.512-25.6-22.528-46.592-50.688-46.592zM166.912 331.776c0-29.691-25.903-53.76-57.856-53.76s-57.856 24.069-57.856 53.76c0 29.691 25.903 53.76 57.856 53.76s57.856-24.069 57.856-53.76zM446.464 285.184h-180.736c-27.648 0-50.176 20.992-50.176 46.592s22.528 46.592 50.176 46.592h181.248c27.648 0 50.176-20.992 50.176-46.592-0.512-26.112-22.528-46.592-50.688-46.592zM166.912 110.592c0-29.691-25.903-53.76-57.856-53.76s-57.856 24.069-57.856 53.76c0 29.691 25.903 53.76 57.856 53.76s57.856-24.069 57.856-53.76zM446.464 64h-180.736c-27.648 0-50.176 20.992-50.176 46.592s22.528 46.592 50.176 46.592h181.248c27.648 0 50.176-20.992 50.176-46.592-0.512-25.6-22.528-46.592-50.688-46.592zM922.624 726.528h-315.904c-27.648 0-50.176 20.992-50.176 46.592s22.528 46.592 50.176 46.592h315.904c27.648 0 50.176-20.992 50.176-46.592s-22.528-46.592-50.176-46.592zM922.624 505.856h-315.904c-27.648 0-50.176 20.992-50.176 46.592s22.528 46.592 50.176 46.592h315.904c27.648 0 50.176-20.992 50.176-46.592s-22.528-46.592-50.176-46.592zM922.624 285.184h-315.904c-27.648 0-50.176 20.992-50.176 46.592s22.528 46.592 50.176 46.592h315.904c27.648 0 50.176-20.992 50.176-46.592 0-26.112-22.528-46.592-50.176-46.592zM922.624 64h-315.904c-27.648 0-50.176 20.992-50.176 46.592s22.528 46.592 50.176 46.592h315.904c27.648 0 50.176-20.992 50.176-46.592s-22.528-46.592-50.176-46.592z" />
<glyph unicode="&#xe929;" glyph-name="42_Dashboard" data-tags="42_Dashboard" horiz-adv-x="1205" d="M196.367 830.494c0-34.93-30.474-63.247-68.066-63.247s-68.066 28.317-68.066 63.247c0 34.93 30.474 63.247 68.066 63.247s68.066-28.317 68.066-63.247zM525.252 775.68h-212.631c-32.527 0-59.031 24.696-59.031 54.814s26.504 54.814 59.031 54.814h213.233c32.527 0 59.031-24.696 59.031-54.814s-26.504-54.814-59.633-54.814zM196.367 570.88c0-34.93-30.474-63.247-68.066-63.247s-68.066 28.317-68.066 63.247c0 34.93 30.474 63.247 68.066 63.247s68.066-28.317 68.066-63.247zM1085.44 516.066h-213.233c-32.527 0-59.031 24.696-59.031 54.814s26.504 54.814 59.031 54.814h213.233c32.527 0 59.031-24.696 59.031-54.814s-26.504-54.814-59.031-54.814zM581.873 311.266c0-34.93-30.474-63.247-68.066-63.247s-68.066 28.317-68.066 63.247c0 34.93 30.474 63.247 68.066 63.247s68.066-28.317 68.066-63.247zM332.499 256.452h-212.631c-32.527 0-59.031 24.696-59.031 54.814s26.504 54.814 59.031 54.814h213.233c32.527 0 59.031-24.696 59.031-54.814-0.602-30.72-26.504-54.814-59.633-54.814zM196.367 51.049c0-34.93-30.474-63.247-68.066-63.247s-68.066 28.317-68.066 63.247c0 34.93 30.474 63.247 68.066 63.247s68.066-28.317 68.066-63.247zM525.252-3.765h-212.631c-32.527 0-59.031 24.696-59.031 54.814s26.504 54.814 59.031 54.814h213.233c32.527 0 59.031-24.696 59.031-54.814-0.602-30.118-26.504-54.814-59.633-54.814zM1085.44 775.68h-371.652c-32.527 0-59.031 24.696-59.031 54.814s26.504 54.814 59.031 54.814h371.652c32.527 0 59.031-24.696 59.031-54.814s-26.504-54.814-59.031-54.814zM683.671 516.066h-371.049c-32.527 0-59.031 24.696-59.031 54.814s26.504 54.814 59.031 54.814h371.652c32.527 0 59.031-24.696 59.031-54.814-0.602-30.118-27.106-54.814-59.633-54.814zM1085.44 256.452h-371.652c-32.527 0-59.031 24.696-59.031 54.814s26.504 54.814 59.031 54.814h371.652c32.527 0 59.031-24.696 59.031-54.814 0-30.72-26.504-54.814-59.031-54.814zM1085.44-3.765h-371.652c-32.527 0-59.031 24.696-59.031 54.814s26.504 54.814 59.031 54.814h371.652c32.527 0 59.031-24.696 59.031-54.814s-26.504-54.814-59.031-54.814z" />
<glyph unicode="&#xe92a;" glyph-name="43_Settings" data-tags="43_Settings" horiz-adv-x="1205" d="M596.329 893.513c-30.118 0-60.235-3.012-90.353-9.035-11.445-2.409-19.878-10.842-22.889-21.685l-16.264-59.633c-38.551-14.456-75.294-34.936-108.424-62.645l-60.235 16.264c-10.842 3.012-22.287-0.602-30.118-9.035-20.48-22.889-37.948-47.586-53.007-73.487-15.059-26.504-27.708-54.212-36.744-83.125-3.614-10.842-0.602-22.287 7.228-30.118l43.972-43.972c-7.228-41.562-7.228-83.727 0-125.289l-43.972-43.972c-7.831-7.831-10.842-19.878-7.228-30.72 9.638-28.913 22.287-56.621 37.346-83.125 15.059-25.901 32.527-50.598 53.007-73.487 7.228-8.433 19.275-12.047 30.118-9.035l60.235 16.264c33.129-27.708 69.873-48.188 108.424-62.645l16.264-59.633c3.012-10.842 12.047-19.275 22.889-21.685 29.515-6.024 60.235-9.638 90.353-9.638s60.838 3.012 90.955 9.638c10.842 2.409 19.878 10.842 22.889 21.685l16.264 59.633c38.551 14.456 75.294 35.539 108.424 62.645l60.235-16.264c10.842-3.012 22.889 0.602 30.118 9.035 20.48 22.889 37.948 47.586 53.007 73.487 15.059 26.504 27.708 54.212 37.346 83.125 3.614 10.842 0.602 22.889-7.228 30.72l-43.972 44.574c7.228 41.562 7.228 83.125 0 124.687l43.972 44.574c7.831 7.831 10.842 19.878 7.228 30.118-9.638 28.913-21.685 56.621-36.744 83.125s-33.129 50.598-53.007 73.487c-7.831 8.433-19.275 12.047-30.118 9.035l-60.235-16.264c-33.129 27.708-69.873 48.791-108.424 62.645l-16.264 59.633c-3.012 10.842-12.047 19.275-22.889 21.685-30.72 5.421-61.44 8.433-92.16 8.433zM596.329 833.88c20.48 0 40.96-3.012 60.838-6.024l14.456-53.609c2.409-9.638 10.24-18.071 19.878-21.082 42.165-13.252 81.92-36.141 116.856-68.066 7.831-6.626 18.071-9.638 28.311-6.626l53.609 14.456c12.649-15.661 25.299-31.925 35.539-49.393s17.468-36.744 24.696-55.416l-39.755-40.358c-7.228-7.228-10.24-17.468-8.433-27.708 9.638-43.972 9.638-90.353 0-134.325-2.409-10.24 1.205-20.48 8.433-27.708l39.755-40.358c-7.228-19.275-15.059-37.948-25.299-55.416s-22.889-33.732-35.539-49.393l-53.609 14.456c-10.24 2.409-20.48 0-28.311-6.626-34.936-31.925-74.692-54.814-116.856-68.066-9.638-3.012-16.866-10.842-19.878-20.48l-14.456-53.609c-19.878-3.012-40.358-6.024-60.838-6.024s-40.358 3.012-60.235 6.024l-14.456 53.609c-2.409 9.638-10.24 18.071-19.878 21.082-42.165 13.252-82.522 35.539-116.856 67.464-7.228 6.626-18.071 9.638-27.708 6.626l-53.609-14.456c-12.649 15.661-25.299 31.322-35.539 49.393-10.24 17.468-18.071 36.744-25.299 55.416l39.153 39.755c7.228 7.228 10.24 18.071 8.433 27.708-9.638 43.972-9.638 90.353 0 134.927 2.409 10.24-1.205 20.48-8.433 27.708l-39.153 39.755c7.228 18.673 14.456 37.948 24.696 55.416s22.889 33.732 35.539 49.393l53.609-14.456c9.638-2.409 20.48 0 27.708 6.626 34.334 31.322 74.692 54.212 116.856 67.464 9.638 3.012 16.866 10.842 19.878 21.082l14.456 53.609c21.685 4.216 41.562 7.228 61.44 7.228zM596.329 667.029c-54.814 0-109.628-21.082-151.191-62.645-83.125-83.125-83.125-218.654 0-302.381 83.125-83.125 219.256-83.125 302.381 0s83.125 218.654 0 302.381c-40.96 41.562-96.376 62.645-151.191 62.645zM596.329 606.793c39.153 0 78.908-14.456 109.026-44.574 60.235-60.235 60.235-157.214 0-217.449s-157.214-60.235-217.449 0c-60.235 60.235-60.235 157.214 0 217.449 30.72 30.118 69.271 44.574 108.424 44.574z" />
<glyph unicode="&#xe92b;" glyph-name="44_Preferences" data-tags="44_Preferences" horiz-adv-x="1205" d="M258.409-3.765h-15.661c-13.854 0-25.299 11.445-25.299 25.299v845.101c0 13.854 11.445 25.299 25.299 25.299h15.661c13.854 0 25.299-11.445 25.299-25.299v-844.499c0-14.456-11.445-25.901-25.299-25.901zM605.365-3.765h-15.661c-13.854 0-25.299 11.445-25.299 25.299v845.101c0 13.854 11.445 25.299 25.299 25.299h15.661c13.854 0 25.299-11.445 25.299-25.299v-844.499c0-14.456-11.445-25.901-25.299-25.901zM943.887-3.765h-15.661c-13.854 0-25.299 11.445-25.299 25.299v845.101c0 13.854 11.445 25.299 25.299 25.299h15.661c13.854 0 25.299-11.445 25.299-25.299v-844.499c0.602-14.456-10.842-25.901-25.299-25.901zM342.739 673.882h-184.922c-24.094 0-43.369 19.878-43.369 43.369v27.106c0 24.094 19.878 43.369 43.369 43.369h184.32c24.094 0 43.369-19.878 43.369-43.369v-27.106c0.602-23.492-18.673-43.369-42.767-43.369zM689.694 323.313h-184.922c-24.094 0-43.369 19.878-43.369 43.369v27.106c0 24.094 19.878 43.369 43.369 43.369h184.32c24.094 0 43.369-19.878 43.369-43.369v-27.106c0.602-23.492-18.673-43.369-42.767-43.369zM1028.819 497.995h-184.32c-24.094 0-43.369 19.878-43.369 43.369v27.106c0 24.094 19.878 43.369 43.369 43.369h184.32c24.094 0 43.369-19.878 43.369-43.369v-27.106c0-23.492-19.878-43.369-43.369-43.369z" />
<glyph unicode="&#xe92c;" glyph-name="45_Follow" data-tags="45_Follow" horiz-adv-x="1000" d="M946.214 443.833c0 1.111 0 2.222-0.556 3.889 0 1.111 0 1.667-0.556 2.778 0 1.111 0 1.667-0.556 2.222 0 0.556-0.556 1.667-1.111 2.778s-0.556 2.222-1.111 3.889c0 0.556-0.556 1.111-0.556 1.667-0.556 1.111-0.556 1.667-1.111 2.222-0.556 1.111-1.111 2.222-1.667 3.334l-113.901 140.015c-15.002 19.447-42.782 23.891-62.785 8.89-9.445-7.223-15.557-17.78-17.224-29.448s1.111-23.336 8.89-33.337l57.784-65.007h-318.368c-24.447 0-44.449-20.002-44.449-44.449s20.002-44.449 44.449-44.449h318.923l-48.894-65.563c-15.002-20.002-19.447-47.783 0-62.785 7.779-5.556 17.224-8.89 26.67-8.89 14.446 0 27.225 6.667 35.559 17.78l111.679 137.237c0.556 0.556 0.556 1.111 0.556 1.111 0.556 0.556 1.111 1.667 1.111 1.667 1.111 1.111 1.667 2.222 2.222 3.334v0l0.556 0.556c0.556 0.556 0.556 1.111 1.111 1.667l0.556 2.222c0.556 1.111 0.556 1.667 1.111 3.334 0 1.111 0.556 1.667 0.556 2.222s0 1.111 0.556 1.667v1.111c0 1.111 0 2.222 0.556 3.334 0 1.111 0 2.222 0 2.778v1.111c0.556 0.556 0 1.111 0 1.111zM143.349 508.284v306.144h606.733v-93.343c0-25.003 20.002-45.005 45.005-45.005s45.005 20.002 45.005 45.005v138.348c0 25.003-20.002 45.005-45.005 45.005h-696.742c-25.003 0-45.005-20.002-45.005-45.005v-351.149zM143.349 552.734v-472.829h606.733v93.343c0 25.003 20.002 45.005 45.005 45.005s45.005-20.002 45.005-45.005v-138.348c0-25.003-20.002-45.005-45.005-45.005h-696.742c-25.003 0-45.005 20.002-45.005 45.005v517.834z" />
<glyph unicode="&#xe92d;" glyph-name="45_Login" data-tags="45_Login" horiz-adv-x="1117" d="M1056.272 30.953c-0.621 5.585-24.204 238.313-265.619 332.645 32.892 55.855 49.648 120.398 49.648 188.664 0 183.699-127.224 333.886-282.996 333.886-156.393 0-282.996-149.566-282.996-333.886 0-68.267 17.377-132.81 50.269-188.664-242.036-94.953-264.999-322.095-265.619-332.645l-3.103-33.513h1002.899l-2.482 33.513zM557.304 282.298c-121.018 0-219.695 121.018-219.695 269.964s98.676 269.964 219.695 269.964 219.695-121.018 219.695-269.964-98.676-269.964-219.695-269.964zM361.813 310.846c52.752-59.578 121.639-91.85 194.87-91.85s142.119 32.892 195.491 91.85c170.046-58.337 220.315-189.285 234.589-250.725h-859.539c14.274 61.44 65.164 192.388 234.589 250.725z" />
</font>
</defs>
</svg>
