<?xml version="1.0" encoding="utf-8"?>
<!-- Generator: Adobe Illustrator 20.0.0, SVG Export Plug-In . SVG Version: 6.00 Build 0)  -->
<svg version="1.1" id="Visa_Logo" xmlns="http://www.w3.org/2000/svg" xmlns:xlink="http://www.w3.org/1999/xlink" x="0px" y="0px"
	 viewBox="0 0 234 83" style="enable-background:new 0 0 234 83;" xml:space="preserve">
<style type="text/css">
	.st0{fill:url(#SVGID_1_);}
	.st1{fill:#F89821;}
	.st2{fill:#CB2128;}
	.st3{fill:#FFFFFF;}
	.st4{fill:#27245E;}
	.st5{fill-rule:evenodd;clip-rule:evenodd;fill:#27245E;}
	.st6{fill:url(#SVGID_2_);}
</style>
<rect x="75.8" y="1.4" class="st3" width="82.1" height="80.3"/>
<radialGradient id="SVGID_1_" cx="-105.3987" cy="-269.8293" r="98.888" gradientTransform="matrix(1 0 0 1 192.4434 282.4648)" gradientUnits="userSpaceOnUse">
	<stop  offset="0" style="stop-color:#00B8E9"/>
	<stop  offset="0.427" style="stop-color:#009ACA"/>
	<stop  offset="0.5077" style="stop-color:#0090BD"/>
	<stop  offset="0.8347" style="stop-color:#006D8E"/>
	<stop  offset="1" style="stop-color:#00607E"/>
</radialGradient>
<path class="st0" d="M154.9,60.7c0,0-0.2,0-0.3,0l-6.4,0v-0.4c-0.7,0.3-1.5,0.5-2.3,0.5c0,0-0.2,0-0.3,0l-3.8,0v0h-9.2v0h-6.3v-1.9
	c0,0,0-1.3,0-1.6c-0.1,0-0.3,0-0.4,0c0,0.8,0,3.5,0,3.5h-6.3V57c-1,0.4-2.2,0.5-3.4,0.5c0,0-0.4,0-0.6,0c0,0.7,0,3.2,0,3.2h-7.5
	c0,0-1.2-1.3-1.9-2.1c-0.7,0.7-1.9,2.1-1.9,2.1H92.2V46.9h12c0,0,1.3,1.5,2.1,2.3c0.8-0.8,2.1-2.3,2.1-2.3h0.8l2,0h6.1
	c0.4,0,1.3,0,2.3,0.3v-0.3h8c0.4,0,1.4,0,2.5,0.4v-0.4h9.8h1.9v0.4c1.1-0.4,2.1-0.4,2.3-0.4l6.7,0v0.4c1.1-0.5,2.2-0.4,2.3-0.4
	l4.8,0V1.4H75.8v35.2l2.8-6.7h6.1c0,0,0.7,1.7,0.7,1.7c0-0.3,0-1.7,0-1.7h7.1c0,0,1.1,2.4,1.6,3.5c0.5-1.1,1.6-3.5,1.6-3.5h4.8h0.5
	h1.9h6.9h0.6h1.9h5.5c0.4,0,1.4,0,2.5,0.4v-0.4h4.5h1.9v0.8c0.9-0.6,2-0.9,3.1-0.9c0,0,3.4,0.1,3.5,0.1l0,0h6.1c0,0,0.7,1.6,0.7,1.6
	c0-0.4,0-1.6,0-1.6h6.6c0,0,0.9,1.5,1,1.7c0-0.3,0-1.7,0-1.7h6.3v13.8h-6.5c0,0-1-1.6-1.1-1.8c0,0.1,0,1.8,0,1.8h-8.1
	c0,0-0.7-1.6-0.9-2.1c-0.8,0-1.3,0-2.2,0c-0.2,0.5-0.9,2.1-0.9,2.1h-5.4l-0.1,0c-0.6-0.1-1.4-0.4-2.1-0.8v0.9h-4.5c0,0,0,0,0,0h-5.6
	v-1.9c0,0,0-1.3,0-1.6c-0.1,0-0.3,0-0.4,0c0,0.8,0,3.5,0,3.5h-3.9h-2.5h-6.9h-0.5h-5.9c0,0,0-0.2,0-0.2c0,0.1-0.1,0.2-0.1,0.2h-4.5
	c0,0-0.1-0.2-0.1-0.3c0,0.1,0,0.3,0,0.3h-8.2c0,0-0.7-1.6-0.9-2.1c-0.8,0-1.3,0-2.2,0c-0.2,0.5-0.9,2.1-0.9,2.1h-3.9v37.9h82.1V59.9
	C157,60.5,155.9,60.7,154.9,60.7z"/>
<g>
	<g>
		<defs>
			<path id="SVGID_3_" d="M118.4,41.8v-2c0,0-0.1-1.5-1.7-1.5h-2.5v3.5h-2.5v-10h6.2c0,0,3.2-0.4,3.2,2.9c0,1.7-1.4,2.3-1.4,2.3
				s1.2,0.6,1.2,2.3v2.5H118.4 M114.2,36h2.6c0.8,0,1.4-0.4,1.4-1c0-0.5-0.6-1-1.4-1h-2.6V36L114.2,36"/>
		</defs>
		<radialGradient id="SVGID_2_" cx="87.0768" cy="12.6393" r="98.8882" gradientUnits="userSpaceOnUse">
			<stop  offset="0" style="stop-color:#00B8E9"/>
			<stop  offset="0.427" style="stop-color:#009ACA"/>
			<stop  offset="0.5077" style="stop-color:#0090BD"/>
			<stop  offset="0.8347" style="stop-color:#006D8E"/>
			<stop  offset="1" style="stop-color:#00607E"/>
		</radialGradient>
		<use xlink:href="#SVGID_3_"  style="overflow:visible;fill:url(#SVGID_2_);"/>
		<clipPath id="SVGID_4_">
			<use xlink:href="#SVGID_3_"  style="overflow:visible;"/>
		</clipPath>
	</g>
	<g>
		<defs>
			<path id="SVGID_6_" d="M148.5,41.8l-4-6.7v6.7h-2.2h-0.4h-2.4l-0.9-2.1h-4.7l-0.9,2.1h-2.3h-0.4H129c0,0-3.4-0.5-3.4-4.7
				c0-5.6,3.9-5.4,4-5.4l3.1,0.1v2.3l-2.6,0c0,0-1.7,0-1.9,2.2c0,0.3,0,0.5,0,0.7c0,3.4,2.9,2.3,3,2.3l3.2-7.5h3.6l3.8,9.1v-9.1h3.6
				l4,6.6v-6.6h2.6v10H148.5 M135,37.2h2.5l-1.2-3L135,37.2L135,37.2"/>
		</defs>
		<radialGradient id="SVGID_5_" cx="87.0777" cy="12.6374" r="98.8879" gradientUnits="userSpaceOnUse">
			<stop  offset="0" style="stop-color:#00B8E9"/>
			<stop  offset="0.427" style="stop-color:#009ACA"/>
			<stop  offset="0.5077" style="stop-color:#0090BD"/>
			<stop  offset="0.8347" style="stop-color:#006D8E"/>
			<stop  offset="1" style="stop-color:#00607E"/>
		</radialGradient>
		<use xlink:href="#SVGID_6_"  style="overflow:visible;fill:url(#SVGID_5_);"/>
		<clipPath id="SVGID_7_">
			<use xlink:href="#SVGID_6_"  style="overflow:visible;"/>
		</clipPath>
	</g>
	<g>
		<defs>
			<path id="SVGID_9_" d="M98.4,41.8v-6.9l-3.2,6.9h-2.1l-3.2-6.9v6.9h-2.2h-0.3h-2.5L84,39.7h-4.7l-0.9,2.1h-2.8l4.2-10h3.6
				l3.9,9.2v-9.2h4l2.8,6.2l2.8-6.2h4v10H98.4 M80.4,37.2h2.5l-1.2-3L80.4,37.2L80.4,37.2"/>
		</defs>
		<radialGradient id="SVGID_8_" cx="87.0777" cy="12.6393" r="98.8879" gradientUnits="userSpaceOnUse">
			<stop  offset="0" style="stop-color:#00B8E9"/>
			<stop  offset="0.427" style="stop-color:#009ACA"/>
			<stop  offset="0.5077" style="stop-color:#0090BD"/>
			<stop  offset="0.8347" style="stop-color:#006D8E"/>
			<stop  offset="1" style="stop-color:#00607E"/>
		</radialGradient>
		<use xlink:href="#SVGID_9_"  style="overflow:visible;fill:url(#SVGID_8_);"/>
		<clipPath id="SVGID_10_">
			<use xlink:href="#SVGID_9_"  style="overflow:visible;"/>
		</clipPath>
	</g>
	<g>
		<defs>
			<polyline id="SVGID_12_" points="102.4,41.8 102.4,31.8 110.4,31.8 110.4,34.2 105,34.2 105,35.7 110.2,35.7 110.2,38 105,38 
				105,39.7 110.4,39.7 110.4,41.8 102.4,41.8 			"/>
		</defs>
		<radialGradient id="SVGID_11_" cx="87.0768" cy="12.6393" r="98.8875" gradientUnits="userSpaceOnUse">
			<stop  offset="0" style="stop-color:#00B8E9"/>
			<stop  offset="0.427" style="stop-color:#009ACA"/>
			<stop  offset="0.5077" style="stop-color:#0090BD"/>
			<stop  offset="0.8347" style="stop-color:#006D8E"/>
			<stop  offset="1" style="stop-color:#00607E"/>
		</radialGradient>
		<use xlink:href="#SVGID_12_"  style="overflow:visible;fill:url(#SVGID_11_);"/>
		<clipPath id="SVGID_13_">
			<use xlink:href="#SVGID_12_"  style="overflow:visible;"/>
		</clipPath>
	</g>
	<g>
		<defs>
			<polyline id="SVGID_15_" points="122.2,41.9 122.2,31.8 124.7,31.8 124.7,41.9 122.2,41.9 			"/>
		</defs>
		<radialGradient id="SVGID_14_" cx="87.0768" cy="12.6402" r="98.889" gradientUnits="userSpaceOnUse">
			<stop  offset="0" style="stop-color:#00B8E9"/>
			<stop  offset="0.427" style="stop-color:#009ACA"/>
			<stop  offset="0.5077" style="stop-color:#0090BD"/>
			<stop  offset="0.8347" style="stop-color:#006D8E"/>
			<stop  offset="1" style="stop-color:#00607E"/>
		</radialGradient>
		<use xlink:href="#SVGID_15_"  style="overflow:visible;fill:url(#SVGID_14_);"/>
		<clipPath id="SVGID_16_">
			<use xlink:href="#SVGID_15_"  style="overflow:visible;"/>
		</clipPath>
	</g>
</g>
<g>
	<g>
		<defs>
			<path id="SVGID_18_" d="M128.3,58.9v-2c0,0-0.1-1.5-1.7-1.5h-2.5v3.5h-2.5v-10h6.2c0,0,3.2-0.4,3.2,2.9c0,1.7-1.4,2.3-1.4,2.3
				s1.2,0.6,1.2,2.3v2.5H128.3 M124.1,53h2.6c0.8,0,1.4-0.4,1.4-1s-0.6-1-1.4-1h-2.6V53L124.1,53"/>
		</defs>
		<radialGradient id="SVGID_17_" cx="87.0768" cy="12.6402" r="98.8862" gradientUnits="userSpaceOnUse">
			<stop  offset="0" style="stop-color:#00B8E9"/>
			<stop  offset="0.427" style="stop-color:#009ACA"/>
			<stop  offset="0.5077" style="stop-color:#0090BD"/>
			<stop  offset="0.8347" style="stop-color:#006D8E"/>
			<stop  offset="1" style="stop-color:#00607E"/>
		</radialGradient>
		<use xlink:href="#SVGID_18_"  style="overflow:visible;fill:url(#SVGID_17_);"/>
		<clipPath id="SVGID_19_">
			<use xlink:href="#SVGID_18_"  style="overflow:visible;"/>
		</clipPath>
	</g>
	<g>
		<defs>
			<path id="SVGID_21_" d="M111.3,58.9H109l-2.7-3l-2.7,3h-1.5h-7.9V48.8h7.9h1.3l2.9,3.2l2.9-3.2h2v0h6.2c0,0,3.2-0.4,3.2,3
				c0,3-1.1,3.9-4.4,3.9h-2.5v3.2H111.3 M108.1,53.9l3.2,3.5v-7L108.1,53.9L108.1,53.9 M96.7,56.7h5.4l2.5-2.8l-2.5-2.8h-5.4v1.5
				h5.2V55h-5.2V56.7L96.7,56.7 M113.8,53h2.6c0.8,0,1.4-0.4,1.4-1c0-0.5-0.6-1-1.4-1h-2.6V53L113.8,53"/>
		</defs>
		<radialGradient id="SVGID_20_" cx="87.0777" cy="12.6383" r="98.8901" gradientUnits="userSpaceOnUse">
			<stop  offset="0" style="stop-color:#00B8E9"/>
			<stop  offset="0.427" style="stop-color:#009ACA"/>
			<stop  offset="0.5077" style="stop-color:#0090BD"/>
			<stop  offset="0.8347" style="stop-color:#006D8E"/>
			<stop  offset="1" style="stop-color:#00607E"/>
		</radialGradient>
		<use xlink:href="#SVGID_21_"  style="overflow:visible;fill:url(#SVGID_20_);"/>
		<clipPath id="SVGID_22_">
			<use xlink:href="#SVGID_21_"  style="overflow:visible;"/>
		</clipPath>
	</g>
	<g>
		<defs>
			<path id="SVGID_24_" d="M145.6,58.8h-4.5v-2.3h4c0,0,1.4,0.2,1.4-0.8c0-0.9-2.2-0.8-2.2-0.8s-3.5,0.3-3.5-3
				c0-3.3,3.2-3.1,3.2-3.1h4.9v2.3H145c0,0-1.4-0.3-1.4,0.7c0,0.8,1.9,0.7,1.9,0.7s3.9-0.3,3.9,2.7c0,3.2-2.5,3.5-3.4,3.5
				C145.8,58.9,145.6,58.8,145.6,58.8"/>
		</defs>
		<radialGradient id="SVGID_23_" cx="87.0768" cy="12.6402" r="98.8886" gradientUnits="userSpaceOnUse">
			<stop  offset="0" style="stop-color:#00B8E9"/>
			<stop  offset="0.427" style="stop-color:#009ACA"/>
			<stop  offset="0.5077" style="stop-color:#0090BD"/>
			<stop  offset="0.8347" style="stop-color:#006D8E"/>
			<stop  offset="1" style="stop-color:#00607E"/>
		</radialGradient>
		<use xlink:href="#SVGID_24_"  style="overflow:visible;fill:url(#SVGID_23_);"/>
		<clipPath id="SVGID_25_">
			<use xlink:href="#SVGID_24_"  style="overflow:visible;"/>
		</clipPath>
	</g>
	<g>
		<defs>
			<polyline id="SVGID_27_" points="132,58.9 132,48.8 139.9,48.8 139.9,51.2 134.6,51.2 134.6,52.7 139.8,52.7 139.8,55 134.6,55 
				134.6,56.7 139.9,56.7 139.9,58.9 132,58.9 			"/>
		</defs>
		<radialGradient id="SVGID_26_" cx="87.0768" cy="12.6383" r="98.8911" gradientUnits="userSpaceOnUse">
			<stop  offset="0" style="stop-color:#00B8E9"/>
			<stop  offset="0.427" style="stop-color:#009ACA"/>
			<stop  offset="0.5077" style="stop-color:#0090BD"/>
			<stop  offset="0.8347" style="stop-color:#006D8E"/>
			<stop  offset="1" style="stop-color:#00607E"/>
		</radialGradient>
		<use xlink:href="#SVGID_27_"  style="overflow:visible;fill:url(#SVGID_26_);"/>
		<clipPath id="SVGID_28_">
			<use xlink:href="#SVGID_27_"  style="overflow:visible;"/>
		</clipPath>
	</g>
	<g>
		<defs>
			<path id="SVGID_30_" d="M154.6,58.8h-4.5v-2.3h4c0,0,1.4,0.2,1.4-0.8c0-0.9-2.2-0.8-2.2-0.8s-3.5,0.3-3.5-3
				c0-3.3,3.2-3.1,3.2-3.1h4.9v2.3h-3.9c0,0-1.4-0.3-1.4,0.7c0,0.8,1.9,0.7,1.9,0.7s3.9-0.3,3.9,2.7c0,3.2-2.5,3.5-3.4,3.5
				C154.7,58.9,154.6,58.8,154.6,58.8"/>
		</defs>
		<radialGradient id="SVGID_29_" cx="87.0768" cy="12.6402" r="98.8862" gradientUnits="userSpaceOnUse">
			<stop  offset="0" style="stop-color:#00B8E9"/>
			<stop  offset="0.427" style="stop-color:#009ACA"/>
			<stop  offset="0.5077" style="stop-color:#0090BD"/>
			<stop  offset="0.8347" style="stop-color:#006D8E"/>
			<stop  offset="1" style="stop-color:#00607E"/>
		</radialGradient>
		<use xlink:href="#SVGID_30_"  style="overflow:visible;fill:url(#SVGID_29_);"/>
		<clipPath id="SVGID_31_">
			<use xlink:href="#SVGID_30_"  style="overflow:visible;"/>
		</clipPath>
	</g>
</g>
</svg>
