<?xml version="1.0" encoding="utf-8"?>
<!-- Generator: Adobe Illustrator 20.0.0, SVG Export Plug-In . SVG Version: 6.00 Build 0)  -->
<svg version="1.1" id="Visa_Logo" xmlns="http://www.w3.org/2000/svg" xmlns:xlink="http://www.w3.org/1999/xlink" x="0px" y="0px"
	 viewBox="0 0 234 83" style="enable-background:new 0 0 234 83;" xml:space="preserve">
<style type="text/css">
	.st0{fill:url(#SVGID_1_);}
	.st1{fill:#F89821;}
	.st2{fill:#CB2128;}
	.st3{fill:#FFFFFF;}
	.st4{fill:#27245E;}
	.st5{fill-rule:evenodd;clip-rule:evenodd;fill:#27245E;}
	.st6{fill:url(#SVGID_2_);}
</style>
<g>
	<g>
		<path class="st1" d="M117,70c6.8,6.2,15.8,9.9,25.7,9.9c21.2,0,38.3-17.2,38.3-38.4c0-21.2-17.2-38.4-38.3-38.4
			c-9.9,0-18.9,3.8-25.7,9.9c-7.7,7-12.6,17.2-12.6,28.5C104.4,52.8,109.3,62.9,117,70"/>
		<path class="st1" d="M175.9,62.9c0-0.7,0.6-1.2,1.2-1.2c0.7,0,1.2,0.6,1.2,1.2c0,0.7-0.6,1.2-1.2,1.2
			C176.5,64.2,175.9,63.6,175.9,62.9 M177.2,63.9c0.5,0,0.9-0.4,0.9-0.9s-0.4-0.9-0.9-0.9c-0.5,0-0.9,0.4-0.9,0.9
			S176.7,63.9,177.2,63.9 M177,63.5h-0.3v-1.1h0.5c0.1,0,0.2,0,0.3,0.1c0.1,0.1,0.1,0.2,0.1,0.3c0,0.1-0.1,0.2-0.2,0.3l0.2,0.5h-0.3
			l-0.2-0.4H177V63.5z M177,62.8h0.1c0.1,0,0.1,0,0.2,0c0,0,0.1-0.1,0.1-0.1c0,0,0-0.1-0.1-0.1c0,0-0.1,0-0.2,0H177V62.8z"/>
		<path class="st2" d="M129.4,37.4c-0.1-1.4-0.4-2.7-0.6-4.1h-23.5c0.3-1.4,0.7-2.7,1.1-4.1h21.2c-0.5-1.4-1-2.8-1.6-4.1h-18
			c0.7-1.4,1.4-2.8,2.2-4.1h13.6c-0.9-1.4-1.9-2.8-2.9-4.1h-7.7c1.2-1.4,2.5-2.8,3.9-4.1c-6.8-6.2-15.8-9.9-25.7-9.9
			c-21.2,0-38.3,17.2-38.3,38.4c0,21.2,17.2,38.4,38.3,38.4c9.9,0,18.9-3.8,25.7-9.9c1.4-1.3,2.7-2.6,3.9-4.1h-7.7
			c-1.1-1.3-2-2.6-2.9-4.1h13.6c0.8-1.3,1.6-2.7,2.2-4.1h-18c-0.6-1.3-1.2-2.7-1.6-4.1h21.2c0.4-1.3,0.8-2.7,1.1-4.1
			c0.3-1.3,0.5-2.7,0.6-4.1c0.1-1.3,0.2-2.7,0.2-4.1C129.6,40.1,129.5,38.8,129.4,37.4"/>
		<path class="st3" d="M175.9,50.4c0-0.7,0.6-1.2,1.2-1.2c0.7,0,1.2,0.6,1.2,1.2s-0.6,1.2-1.2,1.2C176.5,51.6,175.9,51.1,175.9,50.4
			 M177.2,51.3c0.5,0,0.9-0.4,0.9-0.9s-0.4-0.9-0.9-0.9c-0.5,0-0.9,0.4-0.9,0.9S176.7,51.3,177.2,51.3 M177,51h-0.3v-1.1h0.5
			c0.1,0,0.2,0,0.3,0.1c0.1,0.1,0.1,0.2,0.1,0.3c0,0.1-0.1,0.2-0.2,0.3l0.2,0.5h-0.3l-0.2-0.4H177V51z M177,50.3h0.1
			c0.1,0,0.1,0,0.2,0c0,0,0.1-0.1,0.1-0.1c0,0,0-0.1-0.1-0.1c0,0-0.1,0-0.2,0H177V50.3z"/>
		<path class="st4" d="M104,52.6c-1.3,0.4-2.2,0.5-3.1,0.5c-1.9,0-3.1-1.2-3.1-3.5c0-0.4,0-0.9,0.1-1.4l0.3-1.5l0.2-1.3l1.8-10.8h4
			l-0.5,2.4h2.5l-0.6,4H103l-1.1,6.5c-0.1,0.3-0.1,0.5-0.1,0.7c0,0.8,0.4,1.2,1.4,1.2c0.5,0,0.8,0,1.3-0.2L104,52.6"/>
		<path class="st4" d="M116.8,52.4c-1.4,0.4-2.8,0.6-4.3,0.6c-4.4,0-7.1-2.4-7.1-7.1c0-5.4,3.1-9.4,7.3-9.4c3.4,0,5.6,2.2,5.6,5.8
			c0,1.2-0.2,2.3-0.5,3.9h-8.3c0,0.2,0,0.4,0,0.5c0,1.8,1.2,2.8,3.7,2.8c1.5,0,2.8-0.3,4.3-1L116.8,52.4 M114.3,43
			c0-0.3,0-0.6,0-0.8c0-1.3-0.7-2-2-2c-1.3,0-2.3,1-2.7,2.8L114.3,43z"/>
		<polygon class="st4" points="72.2,52.8 68.1,52.8 70.4,37.8 65.1,52.8 62.3,52.8 61.9,37.9 59.4,52.8 55.4,52.8 58.6,33.3 
			64.6,33.3 64.8,45.4 68.8,33.3 75.4,33.3 		"/>
		<path class="st4" d="M82.2,45.7c-0.4-0.1-0.5-0.1-0.8-0.1c-2.4,0-3.6,0.9-3.6,2.4c0,1,0.6,1.6,1.5,1.6
			C81.3,49.7,82.1,48.1,82.2,45.7 M85.5,52.8h-3.6l0.1-1.6c-0.9,1.2-2.1,1.9-4.4,1.9c-2,0-3.7-1.8-3.7-4.3c0-0.8,0.1-1.4,0.3-2.1
			c0.7-2.4,3.1-4,6.9-4c0.5,0,1.2,0,1.8,0.1c0.1-0.5,0.2-0.7,0.2-1c0-1-0.9-1.4-2.8-1.4c-1.2,0-2.5,0.2-3.4,0.5l-0.6,0.2L76,41
			l0.6-3.6c1.9-0.6,3.3-0.8,4.8-0.8c3.6,0,5.5,1.6,5.5,4.6c0,0.8,0.1,1.4-0.2,3.1L85.9,50l-0.1,1l-0.1,0.8l-0.1,0.6L85.5,52.8z"/>
		<path class="st4" d="M136.8,37.1c1.2,0,2.2,0.3,3.7,1.1l0.7-4.2c-0.4-0.2-0.5-0.2-1-0.4l-1.7-0.4c-0.5-0.1-1.2-0.2-1.9-0.2
			c-2.1,0-3.3,0-4.5,0.8c-0.7,0.4-1.5,1-2.5,2.1l-0.5-0.2l-4.2,3l0.2-1.7h-4.4l-2.5,15.8h4.2l1.5-8.5c0,0,0.6-1.2,0.9-1.5
			c0.8-1,1.4-1,2.3-1c0.1,0,0.2,0,0.3,0c-0.1,0.9-0.2,1.9-0.2,3c0,5.2,2.9,8.4,7.4,8.4c1.2,0,2.1-0.2,3.7-0.6l0.7-4.4
			c-1.4,0.7-2.5,1-3.5,1c-2.4,0-3.9-1.8-3.9-4.7C131.5,40.1,133.7,37.1,136.8,37.1"/>
		<path class="st4" d="M172,33.3l-0.9,5.6c-1-1.5-2.2-2.2-3.8-2.2c-2.2,0-4.2,1.3-5.5,3.6l0,0l-2.6-1.6l0.2-1.7H155l-2.5,15.8h4.2
			l1.4-8.5c0,0,1.1-1.2,1.3-1.6c0.6-0.8,1.3-1,1.8-1c-0.5,1.3-0.8,2.9-0.8,4.7c0,4,2.1,6.6,5.1,6.6c1.5,0,2.7-0.5,3.8-1.8l-0.2,1.6
			h3.9l3.2-19.5H172 M166.9,49.1c-1.4,0-2.1-1-2.1-3.1c0-3.1,1.3-5.3,3.2-5.3c1.4,0,2.2,1.1,2.2,3.1
			C170.2,46.9,168.9,49.1,166.9,49.1"/>
		<path class="st4" d="M147.8,45.7c-0.4-0.1-0.5-0.1-0.8-0.1c-2.4,0-3.6,0.9-3.6,2.4c0,1,0.6,1.6,1.5,1.6
			C146.9,49.7,147.7,48.1,147.8,45.7 M151,52.8h-3.6l0.1-1.6c-0.9,1.2-2.1,1.9-4.4,1.9c-2,0-3.8-1.7-3.8-4.3c0-3.8,2.8-6.1,7.3-6.1
			c0.5,0,1.2,0,1.8,0.1c0.1-0.5,0.2-0.7,0.2-1c0-1-0.9-1.4-2.8-1.4c-1.2,0-2.5,0.2-3.4,0.5l-0.6,0.2l-0.2,0.1l0.6-3.6
			c1.9-0.6,3.3-0.8,4.8-0.8c3.6,0,5.5,1.6,5.5,4.6c0,0.8,0.1,1.4-0.2,3.1l-0.9,5.6l-0.1,1l-0.1,0.8l-0.1,0.6L151,52.8z"/>
		<path class="st5" d="M94.2,40.3c0.8,0,1.9,0.1,3.1,0.2l0.6-3.7c-1.2-0.2-2.8-0.3-3.7-0.3c-4.7,0-6.2,2.5-6.2,5.4
			c0,1.9,0.9,3.3,3.1,4.3c1.7,0.8,2,0.9,2,1.7c0,1-0.9,1.5-2.5,1.5c-1.2,0-2.4-0.2-3.7-0.6l-0.5,3.6l0.1,0l0.8,0.2
			c0.2,0.1,0.6,0.1,1.1,0.2c1,0.1,1.8,0.1,2.4,0.1c4.6,0,6.5-1.8,6.5-5.3c0-2.2-1-3.5-3.1-4.4c-1.7-0.8-2-0.9-1.9-1.7
			C92.1,41,92.9,40.3,94.2,40.3"/>
		<path class="st3" d="M142.4,32.7l-0.7,4.2c-1.5-0.7-2.6-1-3.7-1c-3.1,0-5.3,3-5.3,7.3c0,3,1.5,4.7,3.9,4.7c1,0,2.2-0.3,3.5-1
			l-0.7,4.4c-1.5,0.4-2.5,0.6-3.7,0.6c-4.5,0-7.3-3.2-7.3-8.4c0-7,3.9-11.8,9.4-11.8c0.7,0,1.3,0.1,1.9,0.2l1.7,0.4
			C141.9,32.5,142,32.5,142.4,32.7"/>
		<path class="st3" d="M129,35.6c-0.1,0-0.3,0-0.4,0c-1.4,0-2.1,0.7-3.4,2.6l0.4-2.4h-3.8l-2.5,15.8h4.2c1.5-9.7,1.9-11.4,3.9-11.4
			c0.1,0,0.1,0,0.3,0c0.4-1.9,0.9-3.3,1.6-4.6L129,35.6"/>
		<path class="st3" d="M105,51.4c-1.1,0.4-2,0.5-3,0.5c-2.1,0-3.3-1.2-3.3-3.5c0-0.4,0-0.9,0.1-1.4l0.3-1.6l0.2-1.3l1.8-10.8h4.1
			l-0.5,2.4h2.1l-0.6,3.9h-2.1l-1.1,6.6c-0.1,0.3-0.1,0.5-0.1,0.7c0,0.8,0.4,1.2,1.4,1.2c0.5,0,0.8,0,1.1-0.1L105,51.4"/>
		<path class="st3" d="M89,40.7c0,2,1,3.4,3.2,4.4c1.7,0.8,1.9,1,1.9,1.7c0,1-0.7,1.4-2.4,1.4c-1.2,0-2.4-0.2-3.7-0.6l-0.6,3.7
			l0.2,0l0.8,0.2c0.2,0.1,0.6,0.1,1.1,0.1c1,0.1,1.8,0.1,2.3,0.1c4.4,0,6.4-1.7,6.4-5.3c0-2.2-0.8-3.4-2.9-4.4
			c-1.7-0.8-1.9-1-1.9-1.7c0-0.9,0.7-1.3,2-1.3c0.8,0,1.9,0.1,3,0.2l0.6-3.7c-1.1-0.2-2.7-0.3-3.7-0.3C90.6,35.4,89,37.8,89,40.7"/>
		<path class="st3" d="M174.1,51.6h-3.9l0.2-1.6c-1.1,1.2-2.3,1.8-3.8,1.8c-3,0-5-2.6-5-6.6c0-5.3,3.1-9.7,6.8-9.7
			c1.6,0,2.8,0.7,4,2.2l0.9-5.6h4.1L174.1,51.6 M168,47.8c1.9,0,3.3-2.2,3.3-5.3c0-2-0.8-3.1-2.2-3.1c-1.9,0-3.2,2.2-3.2,5.3
			C165.8,46.8,166.6,47.8,168,47.8"/>
		<path class="st3" d="M117.7,51.2c-1.4,0.4-2.8,0.6-4.3,0.6c-4.7,0-7.1-2.4-7.1-7.1c0-5.4,3.1-9.4,7.3-9.4c3.4,0,5.6,2.2,5.6,5.8
			c0,1.2-0.2,2.3-0.5,3.9h-8.3c0,0.2,0,0.4,0,0.5c0,1.8,1.2,2.8,3.6,2.8c1.5,0,2.8-0.3,4.3-1L117.7,51.2 M115.4,41.8
			c0-0.3,0-0.6,0-0.8c0-1.3-0.7-2-2-2c-1.3,0-2.3,1-2.7,2.8L115.4,41.8z"/>
		<polygon class="st3" points="73.3,51.6 69.1,51.6 71.5,36.6 66.2,51.6 63.3,51.6 63,36.7 60.5,51.6 56.6,51.6 59.8,32.1 
			65.8,32.1 66,44.1 70,32.1 76.5,32.1 		"/>
		<path class="st3" d="M83.5,44.5c-0.4-0.1-0.6-0.1-0.9-0.1c-2.4,0-3.6,0.8-3.6,2.4c0,1,0.6,1.6,1.5,1.6
			C82.2,48.5,83.4,46.8,83.5,44.5 M86.5,51.6h-3.4l0.1-1.6c-1.1,1.3-2.5,1.9-4.4,1.9c-2.3,0-3.8-1.8-3.8-4.3c0-3.9,2.7-6.1,7.3-6.1
			c0.5,0,1.1,0,1.7,0.1c0.1-0.5,0.2-0.7,0.2-1c0-1-0.7-1.4-2.7-1.4c-1.2,0-2.5,0.2-3.5,0.4l-0.6,0.2l-0.4,0.1l0.6-3.6
			c2.1-0.6,3.4-0.8,5-0.8c3.6,0,5.5,1.6,5.5,4.6c0,0.8-0.1,1.4-0.3,3.1l-0.9,5.6l-0.1,1l-0.1,0.8l-0.1,0.6L86.5,51.6z"/>
		<path class="st3" d="M149.1,44.5c-0.4-0.1-0.6-0.1-0.9-0.1c-2.4,0-3.6,0.8-3.6,2.4c0,1,0.6,1.6,1.5,1.6
			C147.8,48.5,149,46.8,149.1,44.5 M152.1,51.6h-3.4l0.1-1.6c-1.1,1.3-2.5,1.9-4.4,1.9c-2.3,0-3.8-1.8-3.8-4.3
			c0-3.9,2.7-6.1,7.3-6.1c0.5,0,1.1,0,1.7,0.1c0.1-0.5,0.2-0.7,0.2-1c0-1-0.7-1.4-2.7-1.4c-1.2,0-2.5,0.2-3.5,0.4l-0.6,0.2l-0.4,0.1
			l0.6-3.6c2.1-0.6,3.4-0.8,5-0.8c3.6,0,5.5,1.6,5.5,4.6c0,0.8-0.1,1.4-0.3,3.1l-0.9,5.6l-0.1,1l-0.1,0.8l-0.1,0.6L152.1,51.6z"/>
		<path class="st3" d="M163.3,35.6c-0.1,0-0.3,0-0.4,0c-1.4,0-2.1,0.7-3.4,2.6l0.4-2.4H156l-2.5,15.8h4.2c1.5-9.7,1.9-11.4,3.9-11.4
			c0.1,0,0.1,0,0.3,0c0.4-1.9,0.9-3.3,1.6-4.6L163.3,35.6"/>
	</g>
</g>
</svg>
