<?xml version="1.0" encoding="utf-8"?>
<!-- Generator: Adobe Illustrator 20.0.0, SVG Export Plug-In . SVG Version: 6.00 Build 0)  -->
<svg version="1.1" id="Visa_Logo" xmlns="http://www.w3.org/2000/svg" xmlns:xlink="http://www.w3.org/1999/xlink" x="0px" y="0px"
	 viewBox="0 0 234 83" style="enable-background:new 0 0 234 83;" xml:space="preserve">
<style type="text/css">
	.st0{fill:url(#SVGID_1_);}
	.st1{fill:#F89821;}
	.st2{fill:#CB2128;}
	.st3{fill:#FFFFFF;}
	.st4{fill:#27245E;}
	.st5{fill-rule:evenodd;clip-rule:evenodd;fill:#27245E;}
</style>
<linearGradient id="SVGID_1_" gradientUnits="userSpaceOnUse" x1="9" y1="41.5" x2="225" y2="41.5">
	<stop  offset="0" style="stop-color:#231F5C"/>
	<stop  offset="1" style="stop-color:#034EA2"/>
</linearGradient>
<path class="st0" d="M91,7.9L62.7,75.3H44.3L30.4,21.5c-0.8-3.3-1.6-4.5-4.1-5.9C22,13.3,15.1,11.1,9,9.8l0.4-2h29.7
	c3.8,0,7.2,2.5,8,6.9l7.4,39L72.7,7.9H91z M163.3,53.3c0.1-17.8-24.6-18.8-24.5-26.7c0.1-2.4,2.4-5,7.4-5.7c2.5-0.3,9.4-0.6,17.2,3
	l3.1-14.3c-4.2-1.5-9.6-3-16.3-3c-17.2,0-29.4,9.2-29.5,22.3c-0.1,9.7,8.7,15.1,15.3,18.4c6.8,3.3,9.1,5.4,9.1,8.4
	c-0.1,4.5-5.4,6.5-10.4,6.6c-8.8,0.1-13.9-2.4-17.9-4.3l-3.2,14.8c4.1,1.9,11.6,3.5,19.4,3.6C151.3,76.4,163.2,67.3,163.3,53.3
	 M208.9,75.3H225L210.9,7.9H196c-3.4,0-6.2,1.9-7.4,4.9l-26.2,62.5h18.3l3.6-10.1h22.4L208.9,75.3z M189.4,51.4l9.2-25.3l5.3,25.3
	H189.4z M115.9,7.9l-14.4,67.5H84.1L98.5,7.9H115.9z"/>
</svg>
